<?xml version="1.0" encoding="utf-8" standalone="no"?>
<!DOCTYPE svg PUBLIC "-//W3C//DTD SVG 1.1//EN"
  "http://www.w3.org/Graphics/SVG/1.1/DTD/svg11.dtd">
<svg xmlns:xlink="http://www.w3.org/1999/xlink" width="460.8pt" height="345.6pt" viewBox="0 0 460.8 345.6" xmlns="http://www.w3.org/2000/svg" version="1.1">
 <metadata>
  <rdf:RDF xmlns:dc="http://purl.org/dc/elements/1.1/" xmlns:cc="http://creativecommons.org/ns#" xmlns:rdf="http://www.w3.org/1999/02/22-rdf-syntax-ns#">
   <cc:Work>
    <dc:type rdf:resource="http://purl.org/dc/dcmitype/StillImage"/>
    <dc:date>2023-07-04T10:27:08.087580</dc:date>
    <dc:format>image/svg+xml</dc:format>
    <dc:creator>
     <cc:Agent>
      <dc:title>Matplotlib v3.5.0, https://matplotlib.org/</dc:title>
     </cc:Agent>
    </dc:creator>
   </cc:Work>
  </rdf:RDF>
 </metadata>
 <defs>
  <style type="text/css">*{stroke-linejoin: round; stroke-linecap: butt}</style>
 </defs>
 <g id="figure_1">
  <g id="patch_1">
   <path d="M 0 345.6 
L 460.8 345.6 
L 460.8 0 
L 0 0 
z
" style="fill: #ffffff"/>
  </g>
  <g id="axes_1">
   <g id="patch_2">
    <path d="M 57.6 307.584 
L 414.72 307.584 
L 414.72 41.472 
L 57.6 41.472 
z
" style="fill: #ffffff"/>
   </g>
   <g id="PolyCollection_1">
    <path d="M 69.914483 53.568 
L 69.914483 53.56805 
L 82.228966 95.031914 
L 94.543448 295.306234 
L 106.857931 295.462722 
L 119.172414 295.477503 
L 131.486897 295.478672 
L 143.801379 295.477358 
L 156.115862 295.476988 
L 168.430345 295.476961 
L 180.744828 295.478042 
L 193.05931 295.4794 
L 205.373793 295.480524 
L 217.688276 295.481046 
L 230.002759 295.481648 
L 242.317241 295.481813 
L 254.631724 295.482289 
L 266.946207 295.482703 
L 279.26069 295.483018 
L 291.575172 295.483563 
L 303.889655 295.484072 
L 316.204138 295.484522 
L 328.518621 295.485116 
L 340.833103 295.485644 
L 353.147586 295.486072 
L 365.462069 295.48651 
L 377.776552 295.486887 
L 390.091034 295.48716 
L 402.405517 295.487476 
L 402.405517 295.476221 
L 402.405517 295.476221 
L 390.091034 295.475832 
L 377.776552 295.475491 
L 365.462069 295.474998 
L 353.147586 295.47447 
L 340.833103 295.473983 
L 328.518621 295.473312 
L 316.204138 295.472549 
L 303.889655 295.472024 
L 291.575172 295.471407 
L 279.26069 295.470651 
L 266.946207 295.470171 
L 254.631724 295.469487 
L 242.317241 295.468738 
L 230.002759 295.468419 
L 217.688276 295.467641 
L 205.373793 295.466912 
L 193.05931 295.465356 
L 180.744828 295.463094 
L 168.430345 295.461409 
L 156.115862 295.460337 
L 143.801379 295.459022 
L 131.486897 295.459863 
L 119.172414 295.455126 
L 106.857931 295.425899 
L 94.543448 295.149059 
L 82.228966 82.47504 
L 69.914483 53.568 
z
" clip-path="url(#p13855d1748)" style="fill: #1f77b4; fill-opacity: 0.1"/>
   </g>
   <g id="PolyCollection_2">
    <path d="M 69.914483 53.568022 
L 69.914483 53.568048 
L 82.228966 125.2395 
L 94.543448 295.428937 
L 106.857931 295.477235 
L 119.172414 295.48601 
L 131.486897 295.488 
L 143.801379 295.487972 
L 156.115862 295.487072 
L 168.430345 295.486891 
L 180.744828 295.486994 
L 193.05931 295.487341 
L 205.373793 295.487678 
L 217.688276 295.487666 
L 230.002759 295.487505 
L 242.317241 295.487227 
L 254.631724 295.487171 
L 266.946207 295.486882 
L 279.26069 295.486665 
L 291.575172 295.486586 
L 303.889655 295.486505 
L 316.204138 295.48648 
L 328.518621 295.486612 
L 340.833103 295.486726 
L 353.147586 295.486885 
L 365.462069 295.487108 
L 377.776552 295.487341 
L 390.091034 295.48756 
L 402.405517 295.487795 
L 402.405517 295.471565 
L 402.405517 295.471565 
L 390.091034 295.471187 
L 377.776552 295.470903 
L 365.462069 295.470637 
L 353.147586 295.470349 
L 340.833103 295.470198 
L 328.518621 295.470073 
L 316.204138 295.469845 
L 303.889655 295.469884 
L 291.575172 295.470009 
L 279.26069 295.469943 
L 266.946207 295.470153 
L 254.631724 295.47048 
L 242.317241 295.470449 
L 230.002759 295.470714 
L 217.688276 295.470748 
L 205.373793 295.470763 
L 193.05931 295.470359 
L 180.744828 295.470041 
L 168.430345 295.470115 
L 156.115862 295.470227 
L 143.801379 295.471091 
L 131.486897 295.470769 
L 119.172414 295.464806 
L 106.857931 295.452706 
L 94.543448 295.342856 
L 82.228966 96.571639 
L 69.914483 53.568022 
z
" clip-path="url(#p13855d1748)" style="fill: #ff7f0e; fill-opacity: 0.1"/>
   </g>
   <g id="PolyCollection_3">
    <path d="M 69.914483 53.665347 
L 69.914483 53.71014 
L 82.228966 115.513067 
L 94.543448 295.417243 
L 106.857931 295.473897 
L 119.172414 295.47789 
L 131.486897 295.480954 
L 143.801379 295.480471 
L 156.115862 295.47724 
L 168.430345 295.475943 
L 180.744828 295.47629 
L 193.05931 295.476585 
L 205.373793 295.476719 
L 217.688276 295.476598 
L 230.002759 295.476404 
L 242.317241 295.476173 
L 254.631724 295.476481 
L 266.946207 295.476432 
L 279.26069 295.476269 
L 291.575172 295.476411 
L 303.889655 295.476276 
L 316.204138 295.47628 
L 328.518621 295.476433 
L 340.833103 295.476541 
L 353.147586 295.476673 
L 365.462069 295.476893 
L 377.776552 295.47702 
L 390.091034 295.477181 
L 402.405517 295.477484 
L 402.405517 295.457274 
L 402.405517 295.457274 
L 390.091034 295.456912 
L 377.776552 295.456742 
L 365.462069 295.456609 
L 353.147586 295.456299 
L 340.833103 295.45624 
L 328.518621 295.456189 
L 316.204138 295.455775 
L 303.889655 295.455788 
L 291.575172 295.455883 
L 279.26069 295.455439 
L 266.946207 295.455573 
L 254.631724 295.455586 
L 242.317241 295.454965 
L 230.002759 295.455092 
L 217.688276 295.455083 
L 205.373793 295.454556 
L 193.05931 295.453918 
L 180.744828 295.452869 
L 168.430345 295.451752 
L 156.115862 295.452317 
L 143.801379 295.454498 
L 131.486897 295.453731 
L 119.172414 295.448123 
L 106.857931 295.438479 
L 94.543448 295.321265 
L 82.228966 92.5307 
L 69.914483 53.665347 
z
" clip-path="url(#p13855d1748)" style="fill: #2ca02c; fill-opacity: 0.1"/>
   </g>
   <g id="PolyCollection_4">
    <path d="M 69.914483 65.538197 
L 69.914483 67.616146 
L 82.228966 279.83155 
L 94.543448 295.399475 
L 106.857931 295.456223 
L 119.172414 295.457713 
L 131.486897 295.463728 
L 143.801379 295.463191 
L 156.115862 295.45706 
L 168.430345 295.455221 
L 180.744828 295.454902 
L 193.05931 295.454643 
L 205.373793 295.455225 
L 217.688276 295.454687 
L 230.002759 295.453662 
L 242.317241 295.453368 
L 254.631724 295.453688 
L 266.946207 295.453246 
L 279.26069 295.453102 
L 291.575172 295.453222 
L 303.889655 295.452851 
L 316.204138 295.452827 
L 328.518621 295.453103 
L 340.833103 295.453091 
L 353.147586 295.453311 
L 365.462069 295.453559 
L 377.776552 295.453664 
L 390.091034 295.453902 
L 402.405517 295.454182 
L 402.405517 295.440628 
L 402.405517 295.440628 
L 390.091034 295.440037 
L 377.776552 295.439595 
L 365.462069 295.439265 
L 353.147586 295.438675 
L 340.833103 295.43823 
L 328.518621 295.438082 
L 316.204138 295.437759 
L 303.889655 295.437862 
L 291.575172 295.438279 
L 279.26069 295.438132 
L 266.946207 295.438284 
L 254.631724 295.438784 
L 242.317241 295.438433 
L 230.002759 295.438785 
L 217.688276 295.440154 
L 205.373793 295.441047 
L 193.05931 295.440868 
L 180.744828 295.44121 
L 168.430345 295.441126 
L 156.115862 295.442473 
L 143.801379 295.448909 
L 131.486897 295.451593 
L 119.172414 295.446012 
L 106.857931 295.440434 
L 94.543448 295.354514 
L 82.228966 273.849824 
L 69.914483 65.538197 
z
" clip-path="url(#p13855d1748)" style="fill: #d62728; fill-opacity: 0.1"/>
   </g>
   <g id="matplotlib.axis_1">
    <g id="xtick_1">
     <g id="line2d_1">
      <defs>
       <path id="m7b2541a2f6" d="M 0 0 
L 0 3.5 
" style="stroke: #000000; stroke-width: 0.8"/>
      </defs>
      <g>
       <use xlink:href="#m7b2541a2f6" x="57.6" y="307.584" style="stroke: #000000; stroke-width: 0.8"/>
      </g>
     </g>
     <g id="text_1">
      <!-- 0 -->
      <g transform="translate(54.41875 322.182437)scale(0.1 -0.1)">
       <defs>
        <path id="DejaVuSans-30" d="M 2034 4250 
Q 1547 4250 1301 3770 
Q 1056 3291 1056 2328 
Q 1056 1369 1301 889 
Q 1547 409 2034 409 
Q 2525 409 2770 889 
Q 3016 1369 3016 2328 
Q 3016 3291 2770 3770 
Q 2525 4250 2034 4250 
z
M 2034 4750 
Q 2819 4750 3233 4129 
Q 3647 3509 3647 2328 
Q 3647 1150 3233 529 
Q 2819 -91 2034 -91 
Q 1250 -91 836 529 
Q 422 1150 422 2328 
Q 422 3509 836 4129 
Q 1250 4750 2034 4750 
z
" transform="scale(0.015625)"/>
       </defs>
       <use xlink:href="#DejaVuSans-30"/>
      </g>
     </g>
    </g>
    <g id="xtick_2">
     <g id="line2d_2">
      <g>
       <use xlink:href="#m7b2541a2f6" x="119.172414" y="307.584" style="stroke: #000000; stroke-width: 0.8"/>
      </g>
     </g>
     <g id="text_2">
      <!-- 5 -->
      <g transform="translate(115.991164 322.182437)scale(0.1 -0.1)">
       <defs>
        <path id="DejaVuSans-35" d="M 691 4666 
L 3169 4666 
L 3169 4134 
L 1269 4134 
L 1269 2991 
Q 1406 3038 1543 3061 
Q 1681 3084 1819 3084 
Q 2600 3084 3056 2656 
Q 3513 2228 3513 1497 
Q 3513 744 3044 326 
Q 2575 -91 1722 -91 
Q 1428 -91 1123 -41 
Q 819 9 494 109 
L 494 744 
Q 775 591 1075 516 
Q 1375 441 1709 441 
Q 2250 441 2565 725 
Q 2881 1009 2881 1497 
Q 2881 1984 2565 2268 
Q 2250 2553 1709 2553 
Q 1456 2553 1204 2497 
Q 953 2441 691 2322 
L 691 4666 
z
" transform="scale(0.015625)"/>
       </defs>
       <use xlink:href="#DejaVuSans-35"/>
      </g>
     </g>
    </g>
    <g id="xtick_3">
     <g id="line2d_3">
      <g>
       <use xlink:href="#m7b2541a2f6" x="180.744828" y="307.584" style="stroke: #000000; stroke-width: 0.8"/>
      </g>
     </g>
     <g id="text_3">
      <!-- 10 -->
      <g transform="translate(174.382328 322.182437)scale(0.1 -0.1)">
       <defs>
        <path id="DejaVuSans-31" d="M 794 531 
L 1825 531 
L 1825 4091 
L 703 3866 
L 703 4441 
L 1819 4666 
L 2450 4666 
L 2450 531 
L 3481 531 
L 3481 0 
L 794 0 
L 794 531 
z
" transform="scale(0.015625)"/>
       </defs>
       <use xlink:href="#DejaVuSans-31"/>
       <use xlink:href="#DejaVuSans-30" x="63.623047"/>
      </g>
     </g>
    </g>
    <g id="xtick_4">
     <g id="line2d_4">
      <g>
       <use xlink:href="#m7b2541a2f6" x="242.317241" y="307.584" style="stroke: #000000; stroke-width: 0.8"/>
      </g>
     </g>
     <g id="text_4">
      <!-- 15 -->
      <g transform="translate(235.954741 322.182437)scale(0.1 -0.1)">
       <use xlink:href="#DejaVuSans-31"/>
       <use xlink:href="#DejaVuSans-35" x="63.623047"/>
      </g>
     </g>
    </g>
    <g id="xtick_5">
     <g id="line2d_5">
      <g>
       <use xlink:href="#m7b2541a2f6" x="303.889655" y="307.584" style="stroke: #000000; stroke-width: 0.8"/>
      </g>
     </g>
     <g id="text_5">
      <!-- 20 -->
      <g transform="translate(297.527155 322.182437)scale(0.1 -0.1)">
       <defs>
        <path id="DejaVuSans-32" d="M 1228 531 
L 3431 531 
L 3431 0 
L 469 0 
L 469 531 
Q 828 903 1448 1529 
Q 2069 2156 2228 2338 
Q 2531 2678 2651 2914 
Q 2772 3150 2772 3378 
Q 2772 3750 2511 3984 
Q 2250 4219 1831 4219 
Q 1534 4219 1204 4116 
Q 875 4013 500 3803 
L 500 4441 
Q 881 4594 1212 4672 
Q 1544 4750 1819 4750 
Q 2544 4750 2975 4387 
Q 3406 4025 3406 3419 
Q 3406 3131 3298 2873 
Q 3191 2616 2906 2266 
Q 2828 2175 2409 1742 
Q 1991 1309 1228 531 
z
" transform="scale(0.015625)"/>
       </defs>
       <use xlink:href="#DejaVuSans-32"/>
       <use xlink:href="#DejaVuSans-30" x="63.623047"/>
      </g>
     </g>
    </g>
    <g id="xtick_6">
     <g id="line2d_6">
      <g>
       <use xlink:href="#m7b2541a2f6" x="365.462069" y="307.584" style="stroke: #000000; stroke-width: 0.8"/>
      </g>
     </g>
     <g id="text_6">
      <!-- 25 -->
      <g transform="translate(359.099569 322.182437)scale(0.1 -0.1)">
       <use xlink:href="#DejaVuSans-32"/>
       <use xlink:href="#DejaVuSans-35" x="63.623047"/>
      </g>
     </g>
    </g>
    <g id="text_7">
     <!-- time (d) -->
     <g transform="translate(216.199062 335.860562)scale(0.1 -0.1)">
      <defs>
       <path id="DejaVuSans-74" d="M 1172 4494 
L 1172 3500 
L 2356 3500 
L 2356 3053 
L 1172 3053 
L 1172 1153 
Q 1172 725 1289 603 
Q 1406 481 1766 481 
L 2356 481 
L 2356 0 
L 1766 0 
Q 1100 0 847 248 
Q 594 497 594 1153 
L 594 3053 
L 172 3053 
L 172 3500 
L 594 3500 
L 594 4494 
L 1172 4494 
z
" transform="scale(0.015625)"/>
       <path id="DejaVuSans-69" d="M 603 3500 
L 1178 3500 
L 1178 0 
L 603 0 
L 603 3500 
z
M 603 4863 
L 1178 4863 
L 1178 4134 
L 603 4134 
L 603 4863 
z
" transform="scale(0.015625)"/>
       <path id="DejaVuSans-6d" d="M 3328 2828 
Q 3544 3216 3844 3400 
Q 4144 3584 4550 3584 
Q 5097 3584 5394 3201 
Q 5691 2819 5691 2113 
L 5691 0 
L 5113 0 
L 5113 2094 
Q 5113 2597 4934 2840 
Q 4756 3084 4391 3084 
Q 3944 3084 3684 2787 
Q 3425 2491 3425 1978 
L 3425 0 
L 2847 0 
L 2847 2094 
Q 2847 2600 2669 2842 
Q 2491 3084 2119 3084 
Q 1678 3084 1418 2786 
Q 1159 2488 1159 1978 
L 1159 0 
L 581 0 
L 581 3500 
L 1159 3500 
L 1159 2956 
Q 1356 3278 1631 3431 
Q 1906 3584 2284 3584 
Q 2666 3584 2933 3390 
Q 3200 3197 3328 2828 
z
" transform="scale(0.015625)"/>
       <path id="DejaVuSans-65" d="M 3597 1894 
L 3597 1613 
L 953 1613 
Q 991 1019 1311 708 
Q 1631 397 2203 397 
Q 2534 397 2845 478 
Q 3156 559 3463 722 
L 3463 178 
Q 3153 47 2828 -22 
Q 2503 -91 2169 -91 
Q 1331 -91 842 396 
Q 353 884 353 1716 
Q 353 2575 817 3079 
Q 1281 3584 2069 3584 
Q 2775 3584 3186 3129 
Q 3597 2675 3597 1894 
z
M 3022 2063 
Q 3016 2534 2758 2815 
Q 2500 3097 2075 3097 
Q 1594 3097 1305 2825 
Q 1016 2553 972 2059 
L 3022 2063 
z
" transform="scale(0.015625)"/>
       <path id="DejaVuSans-20" transform="scale(0.015625)"/>
       <path id="DejaVuSans-28" d="M 1984 4856 
Q 1566 4138 1362 3434 
Q 1159 2731 1159 2009 
Q 1159 1288 1364 580 
Q 1569 -128 1984 -844 
L 1484 -844 
Q 1016 -109 783 600 
Q 550 1309 550 2009 
Q 550 2706 781 3412 
Q 1013 4119 1484 4856 
L 1984 4856 
z
" transform="scale(0.015625)"/>
       <path id="DejaVuSans-64" d="M 2906 2969 
L 2906 4863 
L 3481 4863 
L 3481 0 
L 2906 0 
L 2906 525 
Q 2725 213 2448 61 
Q 2172 -91 1784 -91 
Q 1150 -91 751 415 
Q 353 922 353 1747 
Q 353 2572 751 3078 
Q 1150 3584 1784 3584 
Q 2172 3584 2448 3432 
Q 2725 3281 2906 2969 
z
M 947 1747 
Q 947 1113 1208 752 
Q 1469 391 1925 391 
Q 2381 391 2643 752 
Q 2906 1113 2906 1747 
Q 2906 2381 2643 2742 
Q 2381 3103 1925 3103 
Q 1469 3103 1208 2742 
Q 947 2381 947 1747 
z
" transform="scale(0.015625)"/>
       <path id="DejaVuSans-29" d="M 513 4856 
L 1013 4856 
Q 1481 4119 1714 3412 
Q 1947 2706 1947 2009 
Q 1947 1309 1714 600 
Q 1481 -109 1013 -844 
L 513 -844 
Q 928 -128 1133 580 
Q 1338 1288 1338 2009 
Q 1338 2731 1133 3434 
Q 928 4138 513 4856 
z
" transform="scale(0.015625)"/>
      </defs>
      <use xlink:href="#DejaVuSans-74"/>
      <use xlink:href="#DejaVuSans-69" x="39.208984"/>
      <use xlink:href="#DejaVuSans-6d" x="66.992188"/>
      <use xlink:href="#DejaVuSans-65" x="164.404297"/>
      <use xlink:href="#DejaVuSans-20" x="225.927734"/>
      <use xlink:href="#DejaVuSans-28" x="257.714844"/>
      <use xlink:href="#DejaVuSans-64" x="296.728516"/>
      <use xlink:href="#DejaVuSans-29" x="360.205078"/>
     </g>
    </g>
   </g>
   <g id="matplotlib.axis_2">
    <g id="ytick_1">
     <g id="line2d_7">
      <defs>
       <path id="mb0eb56bc1a" d="M 0 0 
L -3.5 0 
" style="stroke: #000000; stroke-width: 0.8"/>
      </defs>
      <g>
       <use xlink:href="#mb0eb56bc1a" x="57.6" y="278.856444" style="stroke: #000000; stroke-width: 0.8"/>
      </g>
     </g>
     <g id="text_8">
      <!-- −14000 -->
      <g transform="translate(10.407812 282.655663)scale(0.1 -0.1)">
       <defs>
        <path id="DejaVuSans-2212" d="M 678 2272 
L 4684 2272 
L 4684 1741 
L 678 1741 
L 678 2272 
z
" transform="scale(0.015625)"/>
        <path id="DejaVuSans-34" d="M 2419 4116 
L 825 1625 
L 2419 1625 
L 2419 4116 
z
M 2253 4666 
L 3047 4666 
L 3047 1625 
L 3713 1625 
L 3713 1100 
L 3047 1100 
L 3047 0 
L 2419 0 
L 2419 1100 
L 313 1100 
L 313 1709 
L 2253 4666 
z
" transform="scale(0.015625)"/>
       </defs>
       <use xlink:href="#DejaVuSans-2212"/>
       <use xlink:href="#DejaVuSans-31" x="83.789062"/>
       <use xlink:href="#DejaVuSans-34" x="147.412109"/>
       <use xlink:href="#DejaVuSans-30" x="211.035156"/>
       <use xlink:href="#DejaVuSans-30" x="274.658203"/>
       <use xlink:href="#DejaVuSans-30" x="338.28125"/>
      </g>
     </g>
    </g>
    <g id="ytick_2">
     <g id="line2d_8">
      <g>
       <use xlink:href="#mb0eb56bc1a" x="57.6" y="245.487802" style="stroke: #000000; stroke-width: 0.8"/>
      </g>
     </g>
     <g id="text_9">
      <!-- −12000 -->
      <g transform="translate(10.407812 249.287021)scale(0.1 -0.1)">
       <use xlink:href="#DejaVuSans-2212"/>
       <use xlink:href="#DejaVuSans-31" x="83.789062"/>
       <use xlink:href="#DejaVuSans-32" x="147.412109"/>
       <use xlink:href="#DejaVuSans-30" x="211.035156"/>
       <use xlink:href="#DejaVuSans-30" x="274.658203"/>
       <use xlink:href="#DejaVuSans-30" x="338.28125"/>
      </g>
     </g>
    </g>
    <g id="ytick_3">
     <g id="line2d_9">
      <g>
       <use xlink:href="#mb0eb56bc1a" x="57.6" y="212.11916" style="stroke: #000000; stroke-width: 0.8"/>
      </g>
     </g>
     <g id="text_10">
      <!-- −10000 -->
      <g transform="translate(10.407812 215.918379)scale(0.1 -0.1)">
       <use xlink:href="#DejaVuSans-2212"/>
       <use xlink:href="#DejaVuSans-31" x="83.789062"/>
       <use xlink:href="#DejaVuSans-30" x="147.412109"/>
       <use xlink:href="#DejaVuSans-30" x="211.035156"/>
       <use xlink:href="#DejaVuSans-30" x="274.658203"/>
       <use xlink:href="#DejaVuSans-30" x="338.28125"/>
      </g>
     </g>
    </g>
    <g id="ytick_4">
     <g id="line2d_10">
      <g>
       <use xlink:href="#mb0eb56bc1a" x="57.6" y="178.750518" style="stroke: #000000; stroke-width: 0.8"/>
      </g>
     </g>
     <g id="text_11">
      <!-- −8000 -->
      <g transform="translate(16.770313 182.549737)scale(0.1 -0.1)">
       <defs>
        <path id="DejaVuSans-38" d="M 2034 2216 
Q 1584 2216 1326 1975 
Q 1069 1734 1069 1313 
Q 1069 891 1326 650 
Q 1584 409 2034 409 
Q 2484 409 2743 651 
Q 3003 894 3003 1313 
Q 3003 1734 2745 1975 
Q 2488 2216 2034 2216 
z
M 1403 2484 
Q 997 2584 770 2862 
Q 544 3141 544 3541 
Q 544 4100 942 4425 
Q 1341 4750 2034 4750 
Q 2731 4750 3128 4425 
Q 3525 4100 3525 3541 
Q 3525 3141 3298 2862 
Q 3072 2584 2669 2484 
Q 3125 2378 3379 2068 
Q 3634 1759 3634 1313 
Q 3634 634 3220 271 
Q 2806 -91 2034 -91 
Q 1263 -91 848 271 
Q 434 634 434 1313 
Q 434 1759 690 2068 
Q 947 2378 1403 2484 
z
M 1172 3481 
Q 1172 3119 1398 2916 
Q 1625 2713 2034 2713 
Q 2441 2713 2670 2916 
Q 2900 3119 2900 3481 
Q 2900 3844 2670 4047 
Q 2441 4250 2034 4250 
Q 1625 4250 1398 4047 
Q 1172 3844 1172 3481 
z
" transform="scale(0.015625)"/>
       </defs>
       <use xlink:href="#DejaVuSans-2212"/>
       <use xlink:href="#DejaVuSans-38" x="83.789062"/>
       <use xlink:href="#DejaVuSans-30" x="147.412109"/>
       <use xlink:href="#DejaVuSans-30" x="211.035156"/>
       <use xlink:href="#DejaVuSans-30" x="274.658203"/>
      </g>
     </g>
    </g>
    <g id="ytick_5">
     <g id="line2d_11">
      <g>
       <use xlink:href="#mb0eb56bc1a" x="57.6" y="145.381876" style="stroke: #000000; stroke-width: 0.8"/>
      </g>
     </g>
     <g id="text_12">
      <!-- −6000 -->
      <g transform="translate(16.770313 149.181094)scale(0.1 -0.1)">
       <defs>
        <path id="DejaVuSans-36" d="M 2113 2584 
Q 1688 2584 1439 2293 
Q 1191 2003 1191 1497 
Q 1191 994 1439 701 
Q 1688 409 2113 409 
Q 2538 409 2786 701 
Q 3034 994 3034 1497 
Q 3034 2003 2786 2293 
Q 2538 2584 2113 2584 
z
M 3366 4563 
L 3366 3988 
Q 3128 4100 2886 4159 
Q 2644 4219 2406 4219 
Q 1781 4219 1451 3797 
Q 1122 3375 1075 2522 
Q 1259 2794 1537 2939 
Q 1816 3084 2150 3084 
Q 2853 3084 3261 2657 
Q 3669 2231 3669 1497 
Q 3669 778 3244 343 
Q 2819 -91 2113 -91 
Q 1303 -91 875 529 
Q 447 1150 447 2328 
Q 447 3434 972 4092 
Q 1497 4750 2381 4750 
Q 2619 4750 2861 4703 
Q 3103 4656 3366 4563 
z
" transform="scale(0.015625)"/>
       </defs>
       <use xlink:href="#DejaVuSans-2212"/>
       <use xlink:href="#DejaVuSans-36" x="83.789062"/>
       <use xlink:href="#DejaVuSans-30" x="147.412109"/>
       <use xlink:href="#DejaVuSans-30" x="211.035156"/>
       <use xlink:href="#DejaVuSans-30" x="274.658203"/>
      </g>
     </g>
    </g>
    <g id="ytick_6">
     <g id="line2d_12">
      <g>
       <use xlink:href="#mb0eb56bc1a" x="57.6" y="112.013234" style="stroke: #000000; stroke-width: 0.8"/>
      </g>
     </g>
     <g id="text_13">
      <!-- −4000 -->
      <g transform="translate(16.770313 115.812452)scale(0.1 -0.1)">
       <use xlink:href="#DejaVuSans-2212"/>
       <use xlink:href="#DejaVuSans-34" x="83.789062"/>
       <use xlink:href="#DejaVuSans-30" x="147.412109"/>
       <use xlink:href="#DejaVuSans-30" x="211.035156"/>
       <use xlink:href="#DejaVuSans-30" x="274.658203"/>
      </g>
     </g>
    </g>
    <g id="ytick_7">
     <g id="line2d_13">
      <g>
       <use xlink:href="#mb0eb56bc1a" x="57.6" y="78.644591" style="stroke: #000000; stroke-width: 0.8"/>
      </g>
     </g>
     <g id="text_14">
      <!-- −2000 -->
      <g transform="translate(16.770313 82.44381)scale(0.1 -0.1)">
       <use xlink:href="#DejaVuSans-2212"/>
       <use xlink:href="#DejaVuSans-32" x="83.789062"/>
       <use xlink:href="#DejaVuSans-30" x="147.412109"/>
       <use xlink:href="#DejaVuSans-30" x="211.035156"/>
       <use xlink:href="#DejaVuSans-30" x="274.658203"/>
      </g>
     </g>
    </g>
    <g id="ytick_8">
     <g id="line2d_14">
      <g>
       <use xlink:href="#mb0eb56bc1a" x="57.6" y="45.275949" style="stroke: #000000; stroke-width: 0.8"/>
      </g>
     </g>
     <g id="text_15">
      <!-- 0 -->
      <g transform="translate(44.2375 49.075168)scale(0.1 -0.1)">
       <use xlink:href="#DejaVuSans-30"/>
      </g>
     </g>
    </g>
    <g id="text_16">
     <!--  cwp (cm) -->
     <g transform="translate(4.328125 199.239719)rotate(-90)scale(0.1 -0.1)">
      <defs>
       <path id="DejaVuSans-63" d="M 3122 3366 
L 3122 2828 
Q 2878 2963 2633 3030 
Q 2388 3097 2138 3097 
Q 1578 3097 1268 2742 
Q 959 2388 959 1747 
Q 959 1106 1268 751 
Q 1578 397 2138 397 
Q 2388 397 2633 464 
Q 2878 531 3122 666 
L 3122 134 
Q 2881 22 2623 -34 
Q 2366 -91 2075 -91 
Q 1284 -91 818 406 
Q 353 903 353 1747 
Q 353 2603 823 3093 
Q 1294 3584 2113 3584 
Q 2378 3584 2631 3529 
Q 2884 3475 3122 3366 
z
" transform="scale(0.015625)"/>
       <path id="DejaVuSans-77" d="M 269 3500 
L 844 3500 
L 1563 769 
L 2278 3500 
L 2956 3500 
L 3675 769 
L 4391 3500 
L 4966 3500 
L 4050 0 
L 3372 0 
L 2619 2869 
L 1863 0 
L 1184 0 
L 269 3500 
z
" transform="scale(0.015625)"/>
       <path id="DejaVuSans-70" d="M 1159 525 
L 1159 -1331 
L 581 -1331 
L 581 3500 
L 1159 3500 
L 1159 2969 
Q 1341 3281 1617 3432 
Q 1894 3584 2278 3584 
Q 2916 3584 3314 3078 
Q 3713 2572 3713 1747 
Q 3713 922 3314 415 
Q 2916 -91 2278 -91 
Q 1894 -91 1617 61 
Q 1341 213 1159 525 
z
M 3116 1747 
Q 3116 2381 2855 2742 
Q 2594 3103 2138 3103 
Q 1681 3103 1420 2742 
Q 1159 2381 1159 1747 
Q 1159 1113 1420 752 
Q 1681 391 2138 391 
Q 2594 391 2855 752 
Q 3116 1113 3116 1747 
z
" transform="scale(0.015625)"/>
      </defs>
      <use xlink:href="#DejaVuSans-20"/>
      <use xlink:href="#DejaVuSans-63" x="31.787109"/>
      <use xlink:href="#DejaVuSans-77" x="86.767578"/>
      <use xlink:href="#DejaVuSans-70" x="168.554688"/>
      <use xlink:href="#DejaVuSans-20" x="232.03125"/>
      <use xlink:href="#DejaVuSans-28" x="263.818359"/>
      <use xlink:href="#DejaVuSans-63" x="302.832031"/>
      <use xlink:href="#DejaVuSans-6d" x="357.8125"/>
      <use xlink:href="#DejaVuSans-29" x="455.224609"/>
     </g>
    </g>
   </g>
   <g id="line2d_15">
    <path d="M 69.914483 53.568025 
L 82.228966 88.753477 
L 94.543448 295.227647 
L 106.857931 295.444311 
L 119.172414 295.466314 
L 131.486897 295.469267 
L 143.801379 295.46819 
L 156.115862 295.468662 
L 168.430345 295.469185 
L 180.744828 295.470568 
L 193.05931 295.472378 
L 205.373793 295.473718 
L 217.688276 295.474344 
L 230.002759 295.475034 
L 242.317241 295.475276 
L 254.631724 295.475888 
L 266.946207 295.476437 
L 279.26069 295.476834 
L 291.575172 295.477485 
L 303.889655 295.478048 
L 316.204138 295.478536 
L 328.518621 295.479214 
L 340.833103 295.479813 
L 353.147586 295.480271 
L 365.462069 295.480754 
L 377.776552 295.481189 
L 390.091034 295.481496 
L 402.405517 295.481849 
" clip-path="url(#p13855d1748)" style="fill: none; stroke: #1f77b4; stroke-width: 1.5; stroke-linecap: square"/>
   </g>
   <g id="line2d_16">
    <path d="M 69.914483 53.568035 
L 82.228966 110.905569 
L 94.543448 295.385896 
L 106.857931 295.464971 
L 119.172414 295.475408 
L 131.486897 295.479385 
L 143.801379 295.479531 
L 156.115862 295.47865 
L 168.430345 295.478503 
L 180.744828 295.478518 
L 193.05931 295.47885 
L 205.373793 295.479221 
L 217.688276 295.479207 
L 230.002759 295.479109 
L 242.317241 295.478838 
L 254.631724 295.478826 
L 266.946207 295.478518 
L 279.26069 295.478304 
L 291.575172 295.478298 
L 303.889655 295.478194 
L 316.204138 295.478163 
L 328.518621 295.478342 
L 340.833103 295.478462 
L 353.147586 295.478617 
L 365.462069 295.478872 
L 377.776552 295.479122 
L 390.091034 295.479374 
L 402.405517 295.47968 
" clip-path="url(#p13855d1748)" style="fill: none; stroke: #ff7f0e; stroke-width: 1.5; stroke-linecap: square"/>
   </g>
   <g id="line2d_17">
    <path d="M 69.914483 53.687744 
L 82.228966 104.021883 
L 94.543448 295.369254 
L 106.857931 295.456188 
L 119.172414 295.463006 
L 131.486897 295.467343 
L 143.801379 295.467484 
L 156.115862 295.464778 
L 168.430345 295.463848 
L 180.744828 295.46458 
L 193.05931 295.465251 
L 205.373793 295.465638 
L 217.688276 295.465841 
L 230.002759 295.465748 
L 242.317241 295.465569 
L 254.631724 295.466033 
L 266.946207 295.466002 
L 279.26069 295.465854 
L 291.575172 295.466147 
L 303.889655 295.466032 
L 316.204138 295.466027 
L 328.518621 295.466311 
L 340.833103 295.466391 
L 353.147586 295.466486 
L 365.462069 295.466751 
L 377.776552 295.466881 
L 390.091034 295.467046 
L 402.405517 295.467379 
" clip-path="url(#p13855d1748)" style="fill: none; stroke: #2ca02c; stroke-width: 1.5; stroke-linecap: square"/>
   </g>
   <g id="line2d_18">
    <path d="M 69.914483 66.577171 
L 82.228966 276.840687 
L 94.543448 295.376994 
L 106.857931 295.448329 
L 119.172414 295.451863 
L 131.486897 295.45766 
L 143.801379 295.45605 
L 156.115862 295.449767 
L 168.430345 295.448174 
L 180.744828 295.448056 
L 193.05931 295.447755 
L 205.373793 295.448136 
L 217.688276 295.447421 
L 230.002759 295.446224 
L 242.317241 295.445901 
L 254.631724 295.446236 
L 266.946207 295.445765 
L 279.26069 295.445617 
L 291.575172 295.445751 
L 303.889655 295.445356 
L 316.204138 295.445293 
L 328.518621 295.445592 
L 340.833103 295.445661 
L 353.147586 295.445993 
L 365.462069 295.446412 
L 377.776552 295.446629 
L 390.091034 295.44697 
L 402.405517 295.447405 
" clip-path="url(#p13855d1748)" style="fill: none; stroke: #d62728; stroke-width: 1.5; stroke-linecap: square"/>
   </g>
   <g id="patch_3">
    <path d="M 57.6 307.584 
L 57.6 41.472 
" style="fill: none; stroke: #000000; stroke-width: 0.8; stroke-linejoin: miter; stroke-linecap: square"/>
   </g>
   <g id="patch_4">
    <path d="M 414.72 307.584 
L 414.72 41.472 
" style="fill: none; stroke: #000000; stroke-width: 0.8; stroke-linejoin: miter; stroke-linecap: square"/>
   </g>
   <g id="patch_5">
    <path d="M 57.6 307.584 
L 414.72 307.584 
" style="fill: none; stroke: #000000; stroke-width: 0.8; stroke-linejoin: miter; stroke-linecap: square"/>
   </g>
   <g id="patch_6">
    <path d="M 57.6 41.472 
L 414.72 41.472 
" style="fill: none; stroke: #000000; stroke-width: 0.8; stroke-linejoin: miter; stroke-linecap: square"/>
   </g>
   <g id="legend_1">
    <g id="patch_7">
     <path d="M 363.327813 108.1845 
L 407.72 108.1845 
Q 409.72 108.1845 409.72 106.1845 
L 409.72 48.472 
Q 409.72 46.472 407.72 46.472 
L 363.327813 46.472 
Q 361.327813 46.472 361.327813 48.472 
L 361.327813 106.1845 
Q 361.327813 108.1845 363.327813 108.1845 
z
" style="fill: #ffffff; opacity: 0.8; stroke: #cccccc; stroke-linejoin: miter"/>
    </g>
    <g id="line2d_19">
     <path d="M 365.327813 54.570438 
L 375.327813 54.570438 
L 385.327813 54.570438 
" style="fill: none; stroke: #1f77b4; stroke-width: 1.5; stroke-linecap: square"/>
    </g>
    <g id="text_17">
     <!-- P0 -->
     <g transform="translate(393.327813 58.070438)scale(0.1 -0.1)">
      <defs>
       <path id="DejaVuSans-50" d="M 1259 4147 
L 1259 2394 
L 2053 2394 
Q 2494 2394 2734 2622 
Q 2975 2850 2975 3272 
Q 2975 3691 2734 3919 
Q 2494 4147 2053 4147 
L 1259 4147 
z
M 628 4666 
L 2053 4666 
Q 2838 4666 3239 4311 
Q 3641 3956 3641 3272 
Q 3641 2581 3239 2228 
Q 2838 1875 2053 1875 
L 1259 1875 
L 1259 0 
L 628 0 
L 628 4666 
z
" transform="scale(0.015625)"/>
      </defs>
      <use xlink:href="#DejaVuSans-50"/>
      <use xlink:href="#DejaVuSans-30" x="60.302734"/>
     </g>
    </g>
    <g id="line2d_20">
     <path d="M 365.327813 69.248563 
L 375.327813 69.248563 
L 385.327813 69.248563 
" style="fill: none; stroke: #ff7f0e; stroke-width: 1.5; stroke-linecap: square"/>
    </g>
    <g id="text_18">
     <!-- P1 -->
     <g transform="translate(393.327813 72.748563)scale(0.1 -0.1)">
      <use xlink:href="#DejaVuSans-50"/>
      <use xlink:href="#DejaVuSans-31" x="60.302734"/>
     </g>
    </g>
    <g id="line2d_21">
     <path d="M 365.327813 83.926688 
L 375.327813 83.926688 
L 385.327813 83.926688 
" style="fill: none; stroke: #2ca02c; stroke-width: 1.5; stroke-linecap: square"/>
    </g>
    <g id="text_19">
     <!-- P2 -->
     <g transform="translate(393.327813 87.426688)scale(0.1 -0.1)">
      <use xlink:href="#DejaVuSans-50"/>
      <use xlink:href="#DejaVuSans-32" x="60.302734"/>
     </g>
    </g>
    <g id="line2d_22">
     <path d="M 365.327813 98.604813 
L 375.327813 98.604813 
L 385.327813 98.604813 
" style="fill: none; stroke: #d62728; stroke-width: 1.5; stroke-linecap: square"/>
    </g>
    <g id="text_20">
     <!-- P3 -->
     <g transform="translate(393.327813 102.104813)scale(0.1 -0.1)">
      <defs>
       <path id="DejaVuSans-33" d="M 2597 2516 
Q 3050 2419 3304 2112 
Q 3559 1806 3559 1356 
Q 3559 666 3084 287 
Q 2609 -91 1734 -91 
Q 1441 -91 1130 -33 
Q 819 25 488 141 
L 488 750 
Q 750 597 1062 519 
Q 1375 441 1716 441 
Q 2309 441 2620 675 
Q 2931 909 2931 1356 
Q 2931 1769 2642 2001 
Q 2353 2234 1838 2234 
L 1294 2234 
L 1294 2753 
L 1863 2753 
Q 2328 2753 2575 2939 
Q 2822 3125 2822 3475 
Q 2822 3834 2567 4026 
Q 2313 4219 1838 4219 
Q 1578 4219 1281 4162 
Q 984 4106 628 3988 
L 628 4550 
Q 988 4650 1302 4700 
Q 1616 4750 1894 4750 
Q 2613 4750 3031 4423 
Q 3450 4097 3450 3541 
Q 3450 3153 3228 2886 
Q 3006 2619 2597 2516 
z
" transform="scale(0.015625)"/>
      </defs>
      <use xlink:href="#DejaVuSans-50"/>
      <use xlink:href="#DejaVuSans-33" x="60.302734"/>
     </g>
    </g>
   </g>
  </g>
 </g>
 <defs>
  <clipPath id="p13855d1748">
   <rect x="57.6" y="41.472" width="357.12" height="266.112"/>
  </clipPath>
 </defs>
</svg>
