<?xml version="1.0" encoding="utf-8" standalone="no"?>
<!DOCTYPE svg PUBLIC "-//W3C//DTD SVG 1.1//EN"
  "http://www.w3.org/Graphics/SVG/1.1/DTD/svg11.dtd">
<svg xmlns:xlink="http://www.w3.org/1999/xlink" width="460.8pt" height="345.6pt" viewBox="0 0 460.8 345.6" xmlns="http://www.w3.org/2000/svg" version="1.1">
 <metadata>
  <rdf:RDF xmlns:dc="http://purl.org/dc/elements/1.1/" xmlns:cc="http://creativecommons.org/ns#" xmlns:rdf="http://www.w3.org/1999/02/22-rdf-syntax-ns#">
   <cc:Work>
    <dc:type rdf:resource="http://purl.org/dc/dcmitype/StillImage"/>
    <dc:date>2023-07-04T10:27:07.469506</dc:date>
    <dc:format>image/svg+xml</dc:format>
    <dc:creator>
     <cc:Agent>
      <dc:title>Matplotlib v3.5.0, https://matplotlib.org/</dc:title>
     </cc:Agent>
    </dc:creator>
   </cc:Work>
  </rdf:RDF>
 </metadata>
 <defs>
  <style type="text/css">*{stroke-linejoin: round; stroke-linecap: butt}</style>
 </defs>
 <g id="figure_1">
  <g id="patch_1">
   <path d="M 0 345.6 
L 460.8 345.6 
L 460.8 0 
L 0 0 
z
" style="fill: #ffffff"/>
  </g>
  <g id="axes_1">
   <g id="patch_2">
    <path d="M 57.6 307.584 
L 414.72 307.584 
L 414.72 41.472 
L 57.6 41.472 
z
" style="fill: #ffffff"/>
   </g>
   <g id="PolyCollection_1">
    <path d="M 69.914483 295.488 
L 69.914483 295.488 
L 82.228966 294.795591 
L 94.543448 290.406932 
L 106.857931 289.222175 
L 119.172414 287.201932 
L 131.486897 283.702955 
L 143.801379 277.350485 
L 156.115862 271.121415 
L 168.430345 265.533592 
L 180.744828 259.753997 
L 193.05931 254.970678 
L 205.373793 250.932574 
L 217.688276 245.201511 
L 230.002759 240.129853 
L 242.317241 234.875793 
L 254.631724 229.759204 
L 266.946207 225.024735 
L 279.26069 220.751454 
L 291.575172 216.911076 
L 303.889655 213.540922 
L 316.204138 210.68852 
L 328.518621 208.32579 
L 340.833103 206.252511 
L 353.147586 204.372312 
L 365.462069 202.591558 
L 377.776552 200.954779 
L 390.091034 199.271954 
L 402.405517 197.86215 
L 402.405517 144.270366 
L 402.405517 144.270366 
L 390.091034 146.912996 
L 377.776552 149.831523 
L 365.462069 152.69097 
L 353.147586 156.003098 
L 340.833103 159.496138 
L 328.518621 163.09718 
L 316.204138 167.163313 
L 303.889655 171.979688 
L 291.575172 177.478233 
L 279.26069 183.387786 
L 266.946207 189.723209 
L 254.631724 196.6054 
L 242.317241 204.17705 
L 230.002759 211.904109 
L 217.688276 219.769619 
L 205.373793 228.466822 
L 193.05931 234.711285 
L 180.744828 241.613448 
L 168.430345 250.271819 
L 156.115862 257.80313 
L 143.801379 266.309319 
L 131.486897 276.024875 
L 119.172414 281.037512 
L 106.857931 284.095363 
L 94.543448 286.437967 
L 82.228966 294.749561 
L 69.914483 295.488 
z
" clip-path="url(#p8a8bd3d81f)" style="fill: #1f77b4; fill-opacity: 0.1"/>
   </g>
   <g id="PolyCollection_2">
    <path d="M 69.914483 295.488 
L 69.914483 295.488 
L 82.228966 294.69784 
L 94.543448 292.116415 
L 106.857931 291.297598 
L 119.172414 289.025977 
L 131.486897 286.946639 
L 143.801379 283.098364 
L 156.115862 278.153033 
L 168.430345 274.051654 
L 180.744828 269.287044 
L 193.05931 265.352747 
L 205.373793 261.60952 
L 217.688276 256.620455 
L 230.002759 251.760215 
L 242.317241 246.699502 
L 254.631724 241.573323 
L 266.946207 236.269442 
L 279.26069 231.320002 
L 291.575172 226.427317 
L 303.889655 221.998547 
L 316.204138 218.01496 
L 328.518621 214.47973 
L 340.833103 211.370061 
L 353.147586 208.728313 
L 365.462069 206.380519 
L 377.776552 204.494191 
L 390.091034 202.824558 
L 402.405517 201.289235 
L 402.405517 119.627518 
L 402.405517 119.627518 
L 390.091034 122.787881 
L 377.776552 126.477474 
L 365.462069 130.70687 
L 353.147586 135.593744 
L 340.833103 141.026062 
L 328.518621 147.090616 
L 316.204138 153.639712 
L 303.889655 160.912448 
L 291.575172 168.954344 
L 279.26069 177.284628 
L 266.946207 185.857008 
L 254.631724 195.092348 
L 242.317241 204.244803 
L 230.002759 213.133011 
L 217.688276 221.760506 
L 205.373793 231.248001 
L 193.05931 238.703502 
L 180.744828 246.581501 
L 168.430345 255.786978 
L 156.115862 263.178333 
L 143.801379 270.93226 
L 131.486897 278.317168 
L 119.172414 281.869775 
L 106.857931 285.525119 
L 94.543448 287.598026 
L 82.228966 294.557634 
L 69.914483 295.488 
z
" clip-path="url(#p8a8bd3d81f)" style="fill: #ff7f0e; fill-opacity: 0.1"/>
   </g>
   <g id="PolyCollection_3">
    <path d="M 69.914483 295.487136 
L 69.914483 295.487137 
L 82.228966 294.646391 
L 94.543448 291.371913 
L 106.857931 290.158631 
L 119.172414 288.046129 
L 131.486897 286.079862 
L 143.801379 281.714552 
L 156.115862 276.177339 
L 168.430345 271.199659 
L 180.744828 265.940912 
L 193.05931 261.579522 
L 205.373793 257.239371 
L 217.688276 251.545441 
L 230.002759 246.593885 
L 242.317241 241.767898 
L 254.631724 237.165765 
L 266.946207 232.78435 
L 279.26069 228.431526 
L 291.575172 224.272627 
L 303.889655 220.227206 
L 316.204138 216.790564 
L 328.518621 213.459873 
L 340.833103 210.659609 
L 353.147586 208.227439 
L 365.462069 205.916395 
L 377.776552 203.825262 
L 390.091034 202.082551 
L 402.405517 200.7363 
L 402.405517 137.580205 
L 402.405517 137.580205 
L 390.091034 140.249612 
L 377.776552 143.437915 
L 365.462069 147.084091 
L 353.147586 151.056883 
L 340.833103 155.531135 
L 328.518621 160.45344 
L 316.204138 165.478114 
L 303.889655 171.188961 
L 291.575172 177.553773 
L 279.26069 183.985856 
L 266.946207 190.923088 
L 254.631724 198.092766 
L 242.317241 205.616433 
L 230.002759 213.29722 
L 217.688276 221.127195 
L 205.373793 229.813302 
L 193.05931 236.809619 
L 180.744828 243.824275 
L 168.430345 252.657397 
L 156.115862 260.298677 
L 143.801379 268.476962 
L 131.486897 276.433774 
L 119.172414 280.607025 
L 106.857931 284.583829 
L 94.543448 287.028646 
L 82.228966 294.537078 
L 69.914483 295.487136 
z
" clip-path="url(#p8a8bd3d81f)" style="fill: #2ca02c; fill-opacity: 0.1"/>
   </g>
   <g id="PolyCollection_4">
    <path d="M 69.914483 295.302604 
L 69.914483 295.304631 
L 82.228966 289.648613 
L 94.543448 287.054938 
L 106.857931 284.797474 
L 119.172414 280.560513 
L 131.486897 276.381089 
L 143.801379 268.076471 
L 156.115862 257.347354 
L 168.430345 247.080439 
L 180.744828 236.149161 
L 193.05931 227.588824 
L 205.373793 218.963135 
L 217.688276 207.577919 
L 230.002759 197.398543 
L 242.317241 187.561605 
L 254.631724 178.265435 
L 266.946207 169.385856 
L 279.26069 160.696287 
L 291.575172 152.327545 
L 303.889655 144.332649 
L 316.204138 137.070781 
L 328.518621 130.59408 
L 340.833103 124.647723 
L 353.147586 119.428897 
L 365.462069 114.374843 
L 377.776552 109.881917 
L 390.091034 105.925643 
L 402.405517 102.235672 
L 402.405517 53.568 
L 402.405517 53.568 
L 390.091034 57.313899 
L 377.776552 61.773083 
L 365.462069 66.751262 
L 353.147586 72.224894 
L 340.833103 78.301045 
L 328.518621 85.330682 
L 316.204138 93.621473 
L 303.889655 103.054983 
L 291.575172 113.059537 
L 279.26069 123.683612 
L 266.946207 134.650996 
L 254.631724 145.836319 
L 242.317241 157.766462 
L 230.002759 170.24774 
L 217.688276 183.334143 
L 205.373793 198.134606 
L 193.05931 209.816669 
L 180.744828 220.651826 
L 168.430345 234.02509 
L 156.115862 246.40331 
L 143.801379 259.357496 
L 131.486897 271.15503 
L 119.172414 277.154586 
L 106.857931 281.648599 
L 94.543448 283.636337 
L 82.228966 287.4383 
L 69.914483 295.302604 
z
" clip-path="url(#p8a8bd3d81f)" style="fill: #d62728; fill-opacity: 0.1"/>
   </g>
   <g id="matplotlib.axis_1">
    <g id="xtick_1">
     <g id="line2d_1">
      <defs>
       <path id="meefabfb97d" d="M 0 0 
L 0 3.5 
" style="stroke: #000000; stroke-width: 0.8"/>
      </defs>
      <g>
       <use xlink:href="#meefabfb97d" x="57.6" y="307.584" style="stroke: #000000; stroke-width: 0.8"/>
      </g>
     </g>
     <g id="text_1">
      <!-- 0 -->
      <g transform="translate(54.41875 322.182437)scale(0.1 -0.1)">
       <defs>
        <path id="DejaVuSans-30" d="M 2034 4250 
Q 1547 4250 1301 3770 
Q 1056 3291 1056 2328 
Q 1056 1369 1301 889 
Q 1547 409 2034 409 
Q 2525 409 2770 889 
Q 3016 1369 3016 2328 
Q 3016 3291 2770 3770 
Q 2525 4250 2034 4250 
z
M 2034 4750 
Q 2819 4750 3233 4129 
Q 3647 3509 3647 2328 
Q 3647 1150 3233 529 
Q 2819 -91 2034 -91 
Q 1250 -91 836 529 
Q 422 1150 422 2328 
Q 422 3509 836 4129 
Q 1250 4750 2034 4750 
z
" transform="scale(0.015625)"/>
       </defs>
       <use xlink:href="#DejaVuSans-30"/>
      </g>
     </g>
    </g>
    <g id="xtick_2">
     <g id="line2d_2">
      <g>
       <use xlink:href="#meefabfb97d" x="119.172414" y="307.584" style="stroke: #000000; stroke-width: 0.8"/>
      </g>
     </g>
     <g id="text_2">
      <!-- 5 -->
      <g transform="translate(115.991164 322.182437)scale(0.1 -0.1)">
       <defs>
        <path id="DejaVuSans-35" d="M 691 4666 
L 3169 4666 
L 3169 4134 
L 1269 4134 
L 1269 2991 
Q 1406 3038 1543 3061 
Q 1681 3084 1819 3084 
Q 2600 3084 3056 2656 
Q 3513 2228 3513 1497 
Q 3513 744 3044 326 
Q 2575 -91 1722 -91 
Q 1428 -91 1123 -41 
Q 819 9 494 109 
L 494 744 
Q 775 591 1075 516 
Q 1375 441 1709 441 
Q 2250 441 2565 725 
Q 2881 1009 2881 1497 
Q 2881 1984 2565 2268 
Q 2250 2553 1709 2553 
Q 1456 2553 1204 2497 
Q 953 2441 691 2322 
L 691 4666 
z
" transform="scale(0.015625)"/>
       </defs>
       <use xlink:href="#DejaVuSans-35"/>
      </g>
     </g>
    </g>
    <g id="xtick_3">
     <g id="line2d_3">
      <g>
       <use xlink:href="#meefabfb97d" x="180.744828" y="307.584" style="stroke: #000000; stroke-width: 0.8"/>
      </g>
     </g>
     <g id="text_3">
      <!-- 10 -->
      <g transform="translate(174.382328 322.182437)scale(0.1 -0.1)">
       <defs>
        <path id="DejaVuSans-31" d="M 794 531 
L 1825 531 
L 1825 4091 
L 703 3866 
L 703 4441 
L 1819 4666 
L 2450 4666 
L 2450 531 
L 3481 531 
L 3481 0 
L 794 0 
L 794 531 
z
" transform="scale(0.015625)"/>
       </defs>
       <use xlink:href="#DejaVuSans-31"/>
       <use xlink:href="#DejaVuSans-30" x="63.623047"/>
      </g>
     </g>
    </g>
    <g id="xtick_4">
     <g id="line2d_4">
      <g>
       <use xlink:href="#meefabfb97d" x="242.317241" y="307.584" style="stroke: #000000; stroke-width: 0.8"/>
      </g>
     </g>
     <g id="text_4">
      <!-- 15 -->
      <g transform="translate(235.954741 322.182437)scale(0.1 -0.1)">
       <use xlink:href="#DejaVuSans-31"/>
       <use xlink:href="#DejaVuSans-35" x="63.623047"/>
      </g>
     </g>
    </g>
    <g id="xtick_5">
     <g id="line2d_5">
      <g>
       <use xlink:href="#meefabfb97d" x="303.889655" y="307.584" style="stroke: #000000; stroke-width: 0.8"/>
      </g>
     </g>
     <g id="text_5">
      <!-- 20 -->
      <g transform="translate(297.527155 322.182437)scale(0.1 -0.1)">
       <defs>
        <path id="DejaVuSans-32" d="M 1228 531 
L 3431 531 
L 3431 0 
L 469 0 
L 469 531 
Q 828 903 1448 1529 
Q 2069 2156 2228 2338 
Q 2531 2678 2651 2914 
Q 2772 3150 2772 3378 
Q 2772 3750 2511 3984 
Q 2250 4219 1831 4219 
Q 1534 4219 1204 4116 
Q 875 4013 500 3803 
L 500 4441 
Q 881 4594 1212 4672 
Q 1544 4750 1819 4750 
Q 2544 4750 2975 4387 
Q 3406 4025 3406 3419 
Q 3406 3131 3298 2873 
Q 3191 2616 2906 2266 
Q 2828 2175 2409 1742 
Q 1991 1309 1228 531 
z
" transform="scale(0.015625)"/>
       </defs>
       <use xlink:href="#DejaVuSans-32"/>
       <use xlink:href="#DejaVuSans-30" x="63.623047"/>
      </g>
     </g>
    </g>
    <g id="xtick_6">
     <g id="line2d_6">
      <g>
       <use xlink:href="#meefabfb97d" x="365.462069" y="307.584" style="stroke: #000000; stroke-width: 0.8"/>
      </g>
     </g>
     <g id="text_6">
      <!-- 25 -->
      <g transform="translate(359.099569 322.182437)scale(0.1 -0.1)">
       <use xlink:href="#DejaVuSans-32"/>
       <use xlink:href="#DejaVuSans-35" x="63.623047"/>
      </g>
     </g>
    </g>
    <g id="text_7">
     <!-- time (d) -->
     <g transform="translate(216.199062 335.860562)scale(0.1 -0.1)">
      <defs>
       <path id="DejaVuSans-74" d="M 1172 4494 
L 1172 3500 
L 2356 3500 
L 2356 3053 
L 1172 3053 
L 1172 1153 
Q 1172 725 1289 603 
Q 1406 481 1766 481 
L 2356 481 
L 2356 0 
L 1766 0 
Q 1100 0 847 248 
Q 594 497 594 1153 
L 594 3053 
L 172 3053 
L 172 3500 
L 594 3500 
L 594 4494 
L 1172 4494 
z
" transform="scale(0.015625)"/>
       <path id="DejaVuSans-69" d="M 603 3500 
L 1178 3500 
L 1178 0 
L 603 0 
L 603 3500 
z
M 603 4863 
L 1178 4863 
L 1178 4134 
L 603 4134 
L 603 4863 
z
" transform="scale(0.015625)"/>
       <path id="DejaVuSans-6d" d="M 3328 2828 
Q 3544 3216 3844 3400 
Q 4144 3584 4550 3584 
Q 5097 3584 5394 3201 
Q 5691 2819 5691 2113 
L 5691 0 
L 5113 0 
L 5113 2094 
Q 5113 2597 4934 2840 
Q 4756 3084 4391 3084 
Q 3944 3084 3684 2787 
Q 3425 2491 3425 1978 
L 3425 0 
L 2847 0 
L 2847 2094 
Q 2847 2600 2669 2842 
Q 2491 3084 2119 3084 
Q 1678 3084 1418 2786 
Q 1159 2488 1159 1978 
L 1159 0 
L 581 0 
L 581 3500 
L 1159 3500 
L 1159 2956 
Q 1356 3278 1631 3431 
Q 1906 3584 2284 3584 
Q 2666 3584 2933 3390 
Q 3200 3197 3328 2828 
z
" transform="scale(0.015625)"/>
       <path id="DejaVuSans-65" d="M 3597 1894 
L 3597 1613 
L 953 1613 
Q 991 1019 1311 708 
Q 1631 397 2203 397 
Q 2534 397 2845 478 
Q 3156 559 3463 722 
L 3463 178 
Q 3153 47 2828 -22 
Q 2503 -91 2169 -91 
Q 1331 -91 842 396 
Q 353 884 353 1716 
Q 353 2575 817 3079 
Q 1281 3584 2069 3584 
Q 2775 3584 3186 3129 
Q 3597 2675 3597 1894 
z
M 3022 2063 
Q 3016 2534 2758 2815 
Q 2500 3097 2075 3097 
Q 1594 3097 1305 2825 
Q 1016 2553 972 2059 
L 3022 2063 
z
" transform="scale(0.015625)"/>
       <path id="DejaVuSans-20" transform="scale(0.015625)"/>
       <path id="DejaVuSans-28" d="M 1984 4856 
Q 1566 4138 1362 3434 
Q 1159 2731 1159 2009 
Q 1159 1288 1364 580 
Q 1569 -128 1984 -844 
L 1484 -844 
Q 1016 -109 783 600 
Q 550 1309 550 2009 
Q 550 2706 781 3412 
Q 1013 4119 1484 4856 
L 1984 4856 
z
" transform="scale(0.015625)"/>
       <path id="DejaVuSans-64" d="M 2906 2969 
L 2906 4863 
L 3481 4863 
L 3481 0 
L 2906 0 
L 2906 525 
Q 2725 213 2448 61 
Q 2172 -91 1784 -91 
Q 1150 -91 751 415 
Q 353 922 353 1747 
Q 353 2572 751 3078 
Q 1150 3584 1784 3584 
Q 2172 3584 2448 3432 
Q 2725 3281 2906 2969 
z
M 947 1747 
Q 947 1113 1208 752 
Q 1469 391 1925 391 
Q 2381 391 2643 752 
Q 2906 1113 2906 1747 
Q 2906 2381 2643 2742 
Q 2381 3103 1925 3103 
Q 1469 3103 1208 2742 
Q 947 2381 947 1747 
z
" transform="scale(0.015625)"/>
       <path id="DejaVuSans-29" d="M 513 4856 
L 1013 4856 
Q 1481 4119 1714 3412 
Q 1947 2706 1947 2009 
Q 1947 1309 1714 600 
Q 1481 -109 1013 -844 
L 513 -844 
Q 928 -128 1133 580 
Q 1338 1288 1338 2009 
Q 1338 2731 1133 3434 
Q 928 4138 513 4856 
z
" transform="scale(0.015625)"/>
      </defs>
      <use xlink:href="#DejaVuSans-74"/>
      <use xlink:href="#DejaVuSans-69" x="39.208984"/>
      <use xlink:href="#DejaVuSans-6d" x="66.992188"/>
      <use xlink:href="#DejaVuSans-65" x="164.404297"/>
      <use xlink:href="#DejaVuSans-20" x="225.927734"/>
      <use xlink:href="#DejaVuSans-28" x="257.714844"/>
      <use xlink:href="#DejaVuSans-64" x="296.728516"/>
      <use xlink:href="#DejaVuSans-29" x="360.205078"/>
     </g>
    </g>
   </g>
   <g id="matplotlib.axis_2">
    <g id="ytick_1">
     <g id="line2d_7">
      <defs>
       <path id="m3a260ed0c1" d="M 0 0 
L -3.5 0 
" style="stroke: #000000; stroke-width: 0.8"/>
      </defs>
      <g>
       <use xlink:href="#m3a260ed0c1" x="57.6" y="295.488" style="stroke: #000000; stroke-width: 0.8"/>
      </g>
     </g>
     <g id="text_8">
      <!-- 0 -->
      <g transform="translate(44.2375 299.287219)scale(0.1 -0.1)">
       <use xlink:href="#DejaVuSans-30"/>
      </g>
     </g>
    </g>
    <g id="ytick_2">
     <g id="line2d_8">
      <g>
       <use xlink:href="#m3a260ed0c1" x="57.6" y="250.644239" style="stroke: #000000; stroke-width: 0.8"/>
      </g>
     </g>
     <g id="text_9">
      <!-- 50 -->
      <g transform="translate(37.875 254.443458)scale(0.1 -0.1)">
       <use xlink:href="#DejaVuSans-35"/>
       <use xlink:href="#DejaVuSans-30" x="63.623047"/>
      </g>
     </g>
    </g>
    <g id="ytick_3">
     <g id="line2d_9">
      <g>
       <use xlink:href="#m3a260ed0c1" x="57.6" y="205.800478" style="stroke: #000000; stroke-width: 0.8"/>
      </g>
     </g>
     <g id="text_10">
      <!-- 100 -->
      <g transform="translate(31.5125 209.599697)scale(0.1 -0.1)">
       <use xlink:href="#DejaVuSans-31"/>
       <use xlink:href="#DejaVuSans-30" x="63.623047"/>
       <use xlink:href="#DejaVuSans-30" x="127.246094"/>
      </g>
     </g>
    </g>
    <g id="ytick_4">
     <g id="line2d_10">
      <g>
       <use xlink:href="#m3a260ed0c1" x="57.6" y="160.956718" style="stroke: #000000; stroke-width: 0.8"/>
      </g>
     </g>
     <g id="text_11">
      <!-- 150 -->
      <g transform="translate(31.5125 164.755936)scale(0.1 -0.1)">
       <use xlink:href="#DejaVuSans-31"/>
       <use xlink:href="#DejaVuSans-35" x="63.623047"/>
       <use xlink:href="#DejaVuSans-30" x="127.246094"/>
      </g>
     </g>
    </g>
    <g id="ytick_5">
     <g id="line2d_11">
      <g>
       <use xlink:href="#m3a260ed0c1" x="57.6" y="116.112957" style="stroke: #000000; stroke-width: 0.8"/>
      </g>
     </g>
     <g id="text_12">
      <!-- 200 -->
      <g transform="translate(31.5125 119.912176)scale(0.1 -0.1)">
       <use xlink:href="#DejaVuSans-32"/>
       <use xlink:href="#DejaVuSans-30" x="63.623047"/>
       <use xlink:href="#DejaVuSans-30" x="127.246094"/>
      </g>
     </g>
    </g>
    <g id="ytick_6">
     <g id="line2d_12">
      <g>
       <use xlink:href="#m3a260ed0c1" x="57.6" y="71.269196" style="stroke: #000000; stroke-width: 0.8"/>
      </g>
     </g>
     <g id="text_13">
      <!-- 250 -->
      <g transform="translate(31.5125 75.068415)scale(0.1 -0.1)">
       <use xlink:href="#DejaVuSans-32"/>
       <use xlink:href="#DejaVuSans-35" x="63.623047"/>
       <use xlink:href="#DejaVuSans-30" x="127.246094"/>
      </g>
     </g>
    </g>
    <g id="text_14">
     <!-- Transpiration (cm$^3$ d$^{-1}$ ) -->
     <g transform="translate(25.4125 234.978)rotate(-90)scale(0.1 -0.1)">
      <defs>
       <path id="DejaVuSans-54" d="M -19 4666 
L 3928 4666 
L 3928 4134 
L 2272 4134 
L 2272 0 
L 1638 0 
L 1638 4134 
L -19 4134 
L -19 4666 
z
" transform="scale(0.015625)"/>
       <path id="DejaVuSans-72" d="M 2631 2963 
Q 2534 3019 2420 3045 
Q 2306 3072 2169 3072 
Q 1681 3072 1420 2755 
Q 1159 2438 1159 1844 
L 1159 0 
L 581 0 
L 581 3500 
L 1159 3500 
L 1159 2956 
Q 1341 3275 1631 3429 
Q 1922 3584 2338 3584 
Q 2397 3584 2469 3576 
Q 2541 3569 2628 3553 
L 2631 2963 
z
" transform="scale(0.015625)"/>
       <path id="DejaVuSans-61" d="M 2194 1759 
Q 1497 1759 1228 1600 
Q 959 1441 959 1056 
Q 959 750 1161 570 
Q 1363 391 1709 391 
Q 2188 391 2477 730 
Q 2766 1069 2766 1631 
L 2766 1759 
L 2194 1759 
z
M 3341 1997 
L 3341 0 
L 2766 0 
L 2766 531 
Q 2569 213 2275 61 
Q 1981 -91 1556 -91 
Q 1019 -91 701 211 
Q 384 513 384 1019 
Q 384 1609 779 1909 
Q 1175 2209 1959 2209 
L 2766 2209 
L 2766 2266 
Q 2766 2663 2505 2880 
Q 2244 3097 1772 3097 
Q 1472 3097 1187 3025 
Q 903 2953 641 2809 
L 641 3341 
Q 956 3463 1253 3523 
Q 1550 3584 1831 3584 
Q 2591 3584 2966 3190 
Q 3341 2797 3341 1997 
z
" transform="scale(0.015625)"/>
       <path id="DejaVuSans-6e" d="M 3513 2113 
L 3513 0 
L 2938 0 
L 2938 2094 
Q 2938 2591 2744 2837 
Q 2550 3084 2163 3084 
Q 1697 3084 1428 2787 
Q 1159 2491 1159 1978 
L 1159 0 
L 581 0 
L 581 3500 
L 1159 3500 
L 1159 2956 
Q 1366 3272 1645 3428 
Q 1925 3584 2291 3584 
Q 2894 3584 3203 3211 
Q 3513 2838 3513 2113 
z
" transform="scale(0.015625)"/>
       <path id="DejaVuSans-73" d="M 2834 3397 
L 2834 2853 
Q 2591 2978 2328 3040 
Q 2066 3103 1784 3103 
Q 1356 3103 1142 2972 
Q 928 2841 928 2578 
Q 928 2378 1081 2264 
Q 1234 2150 1697 2047 
L 1894 2003 
Q 2506 1872 2764 1633 
Q 3022 1394 3022 966 
Q 3022 478 2636 193 
Q 2250 -91 1575 -91 
Q 1294 -91 989 -36 
Q 684 19 347 128 
L 347 722 
Q 666 556 975 473 
Q 1284 391 1588 391 
Q 1994 391 2212 530 
Q 2431 669 2431 922 
Q 2431 1156 2273 1281 
Q 2116 1406 1581 1522 
L 1381 1569 
Q 847 1681 609 1914 
Q 372 2147 372 2553 
Q 372 3047 722 3315 
Q 1072 3584 1716 3584 
Q 2034 3584 2315 3537 
Q 2597 3491 2834 3397 
z
" transform="scale(0.015625)"/>
       <path id="DejaVuSans-70" d="M 1159 525 
L 1159 -1331 
L 581 -1331 
L 581 3500 
L 1159 3500 
L 1159 2969 
Q 1341 3281 1617 3432 
Q 1894 3584 2278 3584 
Q 2916 3584 3314 3078 
Q 3713 2572 3713 1747 
Q 3713 922 3314 415 
Q 2916 -91 2278 -91 
Q 1894 -91 1617 61 
Q 1341 213 1159 525 
z
M 3116 1747 
Q 3116 2381 2855 2742 
Q 2594 3103 2138 3103 
Q 1681 3103 1420 2742 
Q 1159 2381 1159 1747 
Q 1159 1113 1420 752 
Q 1681 391 2138 391 
Q 2594 391 2855 752 
Q 3116 1113 3116 1747 
z
" transform="scale(0.015625)"/>
       <path id="DejaVuSans-6f" d="M 1959 3097 
Q 1497 3097 1228 2736 
Q 959 2375 959 1747 
Q 959 1119 1226 758 
Q 1494 397 1959 397 
Q 2419 397 2687 759 
Q 2956 1122 2956 1747 
Q 2956 2369 2687 2733 
Q 2419 3097 1959 3097 
z
M 1959 3584 
Q 2709 3584 3137 3096 
Q 3566 2609 3566 1747 
Q 3566 888 3137 398 
Q 2709 -91 1959 -91 
Q 1206 -91 779 398 
Q 353 888 353 1747 
Q 353 2609 779 3096 
Q 1206 3584 1959 3584 
z
" transform="scale(0.015625)"/>
       <path id="DejaVuSans-63" d="M 3122 3366 
L 3122 2828 
Q 2878 2963 2633 3030 
Q 2388 3097 2138 3097 
Q 1578 3097 1268 2742 
Q 959 2388 959 1747 
Q 959 1106 1268 751 
Q 1578 397 2138 397 
Q 2388 397 2633 464 
Q 2878 531 3122 666 
L 3122 134 
Q 2881 22 2623 -34 
Q 2366 -91 2075 -91 
Q 1284 -91 818 406 
Q 353 903 353 1747 
Q 353 2603 823 3093 
Q 1294 3584 2113 3584 
Q 2378 3584 2631 3529 
Q 2884 3475 3122 3366 
z
" transform="scale(0.015625)"/>
       <path id="DejaVuSans-33" d="M 2597 2516 
Q 3050 2419 3304 2112 
Q 3559 1806 3559 1356 
Q 3559 666 3084 287 
Q 2609 -91 1734 -91 
Q 1441 -91 1130 -33 
Q 819 25 488 141 
L 488 750 
Q 750 597 1062 519 
Q 1375 441 1716 441 
Q 2309 441 2620 675 
Q 2931 909 2931 1356 
Q 2931 1769 2642 2001 
Q 2353 2234 1838 2234 
L 1294 2234 
L 1294 2753 
L 1863 2753 
Q 2328 2753 2575 2939 
Q 2822 3125 2822 3475 
Q 2822 3834 2567 4026 
Q 2313 4219 1838 4219 
Q 1578 4219 1281 4162 
Q 984 4106 628 3988 
L 628 4550 
Q 988 4650 1302 4700 
Q 1616 4750 1894 4750 
Q 2613 4750 3031 4423 
Q 3450 4097 3450 3541 
Q 3450 3153 3228 2886 
Q 3006 2619 2597 2516 
z
" transform="scale(0.015625)"/>
       <path id="DejaVuSans-2212" d="M 678 2272 
L 4684 2272 
L 4684 1741 
L 678 1741 
L 678 2272 
z
" transform="scale(0.015625)"/>
      </defs>
      <use xlink:href="#DejaVuSans-54" transform="translate(0 0.765625)"/>
      <use xlink:href="#DejaVuSans-72" transform="translate(61.083984 0.765625)"/>
      <use xlink:href="#DejaVuSans-61" transform="translate(102.197266 0.765625)"/>
      <use xlink:href="#DejaVuSans-6e" transform="translate(163.476562 0.765625)"/>
      <use xlink:href="#DejaVuSans-73" transform="translate(226.855469 0.765625)"/>
      <use xlink:href="#DejaVuSans-70" transform="translate(278.955078 0.765625)"/>
      <use xlink:href="#DejaVuSans-69" transform="translate(342.431641 0.765625)"/>
      <use xlink:href="#DejaVuSans-72" transform="translate(370.214844 0.765625)"/>
      <use xlink:href="#DejaVuSans-61" transform="translate(411.328125 0.765625)"/>
      <use xlink:href="#DejaVuSans-74" transform="translate(472.607422 0.765625)"/>
      <use xlink:href="#DejaVuSans-69" transform="translate(511.816406 0.765625)"/>
      <use xlink:href="#DejaVuSans-6f" transform="translate(539.599609 0.765625)"/>
      <use xlink:href="#DejaVuSans-6e" transform="translate(600.78125 0.765625)"/>
      <use xlink:href="#DejaVuSans-20" transform="translate(664.160156 0.765625)"/>
      <use xlink:href="#DejaVuSans-28" transform="translate(695.947266 0.765625)"/>
      <use xlink:href="#DejaVuSans-63" transform="translate(734.960938 0.765625)"/>
      <use xlink:href="#DejaVuSans-6d" transform="translate(789.941406 0.765625)"/>
      <use xlink:href="#DejaVuSans-33" transform="translate(888.310547 39.046875)scale(0.7)"/>
      <use xlink:href="#DejaVuSans-20" transform="translate(935.581055 0.765625)"/>
      <use xlink:href="#DejaVuSans-64" transform="translate(967.368164 0.765625)"/>
      <use xlink:href="#DejaVuSans-2212" transform="translate(1031.801758 39.046875)scale(0.7)"/>
      <use xlink:href="#DejaVuSans-31" transform="translate(1090.454102 39.046875)scale(0.7)"/>
      <use xlink:href="#DejaVuSans-20" transform="translate(1137.724609 0.765625)"/>
      <use xlink:href="#DejaVuSans-29" transform="translate(1169.511719 0.765625)"/>
     </g>
    </g>
   </g>
   <g id="line2d_13">
    <path d="M 69.914483 295.488 
L 82.228966 294.772576 
L 94.543448 288.422449 
L 106.857931 286.658769 
L 119.172414 284.119722 
L 131.486897 279.863915 
L 143.801379 271.829902 
L 156.115862 264.462273 
L 168.430345 257.902706 
L 180.744828 250.683722 
L 193.05931 244.840982 
L 205.373793 239.699698 
L 217.688276 232.485565 
L 230.002759 226.016981 
L 242.317241 219.526422 
L 254.631724 213.182302 
L 266.946207 207.373972 
L 279.26069 202.06962 
L 291.575172 197.194654 
L 303.889655 192.760305 
L 316.204138 188.925917 
L 328.518621 185.711485 
L 340.833103 182.874324 
L 353.147586 180.187705 
L 365.462069 177.641264 
L 377.776552 175.393151 
L 390.091034 173.092475 
L 402.405517 171.066258 
" clip-path="url(#p8a8bd3d81f)" style="fill: none; stroke: #1f77b4; stroke-width: 1.5; stroke-linecap: square"/>
   </g>
   <g id="line2d_14">
    <path d="M 69.914483 295.488 
L 82.228966 294.627737 
L 94.543448 289.85722 
L 106.857931 288.411358 
L 119.172414 285.447876 
L 131.486897 282.631903 
L 143.801379 277.015312 
L 156.115862 270.665683 
L 168.430345 264.919316 
L 180.744828 257.934273 
L 193.05931 252.028124 
L 205.373793 246.428761 
L 217.688276 239.190481 
L 230.002759 232.446613 
L 242.317241 225.472152 
L 254.631724 218.332835 
L 266.946207 211.063225 
L 279.26069 204.302315 
L 291.575172 197.69083 
L 303.889655 191.455498 
L 316.204138 185.827336 
L 328.518621 180.785173 
L 340.833103 176.198061 
L 353.147586 172.161029 
L 365.462069 168.543695 
L 377.776552 165.485832 
L 390.091034 162.806219 
L 402.405517 160.458376 
" clip-path="url(#p8a8bd3d81f)" style="fill: none; stroke: #ff7f0e; stroke-width: 1.5; stroke-linecap: square"/>
   </g>
   <g id="line2d_15">
    <path d="M 69.914483 295.487137 
L 82.228966 294.591734 
L 94.543448 289.200279 
L 106.857931 287.37123 
L 119.172414 284.326577 
L 131.486897 281.256818 
L 143.801379 275.095757 
L 156.115862 268.238008 
L 168.430345 261.928528 
L 180.744828 254.882593 
L 193.05931 249.19457 
L 205.373793 243.526337 
L 217.688276 236.336318 
L 230.002759 229.945553 
L 242.317241 223.692166 
L 254.631724 217.629266 
L 266.946207 211.853719 
L 279.26069 206.208691 
L 291.575172 200.9132 
L 303.889655 195.708084 
L 316.204138 191.134339 
L 328.518621 186.956657 
L 340.833103 183.095372 
L 353.147586 179.642161 
L 365.462069 176.500243 
L 377.776552 173.631588 
L 390.091034 171.166081 
L 402.405517 169.158253 
" clip-path="url(#p8a8bd3d81f)" style="fill: none; stroke: #2ca02c; stroke-width: 1.5; stroke-linecap: square"/>
   </g>
   <g id="line2d_16">
    <path d="M 69.914483 295.303617 
L 82.228966 288.543456 
L 94.543448 285.345638 
L 106.857931 283.223037 
L 119.172414 278.857549 
L 131.486897 273.768059 
L 143.801379 263.716983 
L 156.115862 251.875332 
L 168.430345 240.552764 
L 180.744828 228.400493 
L 193.05931 218.702747 
L 205.373793 208.54887 
L 217.688276 195.456031 
L 230.002759 183.823142 
L 242.317241 172.664034 
L 254.631724 162.050877 
L 266.946207 152.018426 
L 279.26069 142.18995 
L 291.575172 132.693541 
L 303.889655 123.693816 
L 316.204138 115.346127 
L 328.518621 107.962381 
L 340.833103 101.474384 
L 353.147586 95.826895 
L 365.462069 90.563052 
L 377.776552 85.8275 
L 390.091034 81.619771 
L 402.405517 77.901836 
" clip-path="url(#p8a8bd3d81f)" style="fill: none; stroke: #d62728; stroke-width: 1.5; stroke-linecap: square"/>
   </g>
   <g id="patch_3">
    <path d="M 57.6 307.584 
L 57.6 41.472 
" style="fill: none; stroke: #000000; stroke-width: 0.8; stroke-linejoin: miter; stroke-linecap: square"/>
   </g>
   <g id="patch_4">
    <path d="M 414.72 307.584 
L 414.72 41.472 
" style="fill: none; stroke: #000000; stroke-width: 0.8; stroke-linejoin: miter; stroke-linecap: square"/>
   </g>
   <g id="patch_5">
    <path d="M 57.6 307.584 
L 414.72 307.584 
" style="fill: none; stroke: #000000; stroke-width: 0.8; stroke-linejoin: miter; stroke-linecap: square"/>
   </g>
   <g id="patch_6">
    <path d="M 57.6 41.472 
L 414.72 41.472 
" style="fill: none; stroke: #000000; stroke-width: 0.8; stroke-linejoin: miter; stroke-linecap: square"/>
   </g>
   <g id="legend_1">
    <g id="patch_7">
     <path d="M 64.6 108.1845 
L 108.992188 108.1845 
Q 110.992188 108.1845 110.992188 106.1845 
L 110.992188 48.472 
Q 110.992188 46.472 108.992188 46.472 
L 64.6 46.472 
Q 62.6 46.472 62.6 48.472 
L 62.6 106.1845 
Q 62.6 108.1845 64.6 108.1845 
z
" style="fill: #ffffff; opacity: 0.8; stroke: #cccccc; stroke-linejoin: miter"/>
    </g>
    <g id="line2d_17">
     <path d="M 66.6 54.570438 
L 76.6 54.570438 
L 86.6 54.570438 
" style="fill: none; stroke: #1f77b4; stroke-width: 1.5; stroke-linecap: square"/>
    </g>
    <g id="text_15">
     <!-- P0 -->
     <g transform="translate(94.6 58.070438)scale(0.1 -0.1)">
      <defs>
       <path id="DejaVuSans-50" d="M 1259 4147 
L 1259 2394 
L 2053 2394 
Q 2494 2394 2734 2622 
Q 2975 2850 2975 3272 
Q 2975 3691 2734 3919 
Q 2494 4147 2053 4147 
L 1259 4147 
z
M 628 4666 
L 2053 4666 
Q 2838 4666 3239 4311 
Q 3641 3956 3641 3272 
Q 3641 2581 3239 2228 
Q 2838 1875 2053 1875 
L 1259 1875 
L 1259 0 
L 628 0 
L 628 4666 
z
" transform="scale(0.015625)"/>
      </defs>
      <use xlink:href="#DejaVuSans-50"/>
      <use xlink:href="#DejaVuSans-30" x="60.302734"/>
     </g>
    </g>
    <g id="line2d_18">
     <path d="M 66.6 69.248563 
L 76.6 69.248563 
L 86.6 69.248563 
" style="fill: none; stroke: #ff7f0e; stroke-width: 1.5; stroke-linecap: square"/>
    </g>
    <g id="text_16">
     <!-- P1 -->
     <g transform="translate(94.6 72.748563)scale(0.1 -0.1)">
      <use xlink:href="#DejaVuSans-50"/>
      <use xlink:href="#DejaVuSans-31" x="60.302734"/>
     </g>
    </g>
    <g id="line2d_19">
     <path d="M 66.6 83.926688 
L 76.6 83.926688 
L 86.6 83.926688 
" style="fill: none; stroke: #2ca02c; stroke-width: 1.5; stroke-linecap: square"/>
    </g>
    <g id="text_17">
     <!-- P2 -->
     <g transform="translate(94.6 87.426688)scale(0.1 -0.1)">
      <use xlink:href="#DejaVuSans-50"/>
      <use xlink:href="#DejaVuSans-32" x="60.302734"/>
     </g>
    </g>
    <g id="line2d_20">
     <path d="M 66.6 98.604813 
L 76.6 98.604813 
L 86.6 98.604813 
" style="fill: none; stroke: #d62728; stroke-width: 1.5; stroke-linecap: square"/>
    </g>
    <g id="text_18">
     <!-- P3 -->
     <g transform="translate(94.6 102.104813)scale(0.1 -0.1)">
      <use xlink:href="#DejaVuSans-50"/>
      <use xlink:href="#DejaVuSans-33" x="60.302734"/>
     </g>
    </g>
   </g>
  </g>
 </g>
 <defs>
  <clipPath id="p8a8bd3d81f">
   <rect x="57.6" y="41.472" width="357.12" height="266.112"/>
  </clipPath>
 </defs>
</svg>
