<?xml version="1.0" encoding="utf-8" standalone="no"?>
<!DOCTYPE svg PUBLIC "-//W3C//DTD SVG 1.1//EN"
  "http://www.w3.org/Graphics/SVG/1.1/DTD/svg11.dtd">
<svg xmlns:xlink="http://www.w3.org/1999/xlink" width="460.8pt" height="345.6pt" viewBox="0 0 460.8 345.6" xmlns="http://www.w3.org/2000/svg" version="1.1">
 <metadata>
  <rdf:RDF xmlns:dc="http://purl.org/dc/elements/1.1/" xmlns:cc="http://creativecommons.org/ns#" xmlns:rdf="http://www.w3.org/1999/02/22-rdf-syntax-ns#">
   <cc:Work>
    <dc:type rdf:resource="http://purl.org/dc/dcmitype/StillImage"/>
    <dc:date>2023-07-04T10:27:06.782304</dc:date>
    <dc:format>image/svg+xml</dc:format>
    <dc:creator>
     <cc:Agent>
      <dc:title>Matplotlib v3.5.0, https://matplotlib.org/</dc:title>
     </cc:Agent>
    </dc:creator>
   </cc:Work>
  </rdf:RDF>
 </metadata>
 <defs>
  <style type="text/css">*{stroke-linejoin: round; stroke-linecap: butt}</style>
 </defs>
 <g id="figure_1">
  <g id="patch_1">
   <path d="M 0 345.6 
L 460.8 345.6 
L 460.8 0 
L 0 0 
z
" style="fill: #ffffff"/>
  </g>
  <g id="axes_1">
   <g id="patch_2">
    <path d="M 57.6 307.584 
L 414.72 307.584 
L 414.72 41.472 
L 57.6 41.472 
z
" style="fill: #ffffff"/>
   </g>
   <g id="PolyCollection_1">
    <path d="M 69.914483 227.028463 
L 69.914483 227.028463 
L 82.228966 224.100065 
L 94.543448 223.383155 
L 106.857931 222.53612 
L 119.172414 221.088066 
L 131.486897 218.579673 
L 143.801379 214.025471 
L 156.115862 209.559798 
L 168.430345 205.55385 
L 180.744828 201.410532 
L 193.05931 197.981503 
L 205.373793 195.086732 
L 217.688276 190.978231 
L 230.002759 187.34249 
L 242.317241 183.575911 
L 254.631724 179.907953 
L 266.946207 176.51393 
L 279.26069 173.450527 
L 291.575172 170.697524 
L 303.889655 168.281622 
L 316.204138 166.236879 
L 328.518621 164.543228 
L 340.833103 163.057062 
L 353.147586 161.709294 
L 365.462069 160.432822 
L 377.776552 159.259555 
L 390.091034 158.053253 
L 402.405517 157.042685 
L 402.405517 118.618914 
L 402.405517 118.618914 
L 390.091034 120.513271 
L 377.776552 122.605452 
L 365.462069 124.65522 
L 353.147586 127.029511 
L 340.833103 129.533529 
L 328.518621 132.114913 
L 316.204138 135.029715 
L 303.889655 138.482481 
L 291.575172 142.424301 
L 279.26069 146.660759 
L 266.946207 151.202652 
L 254.631724 156.13649 
L 242.317241 161.56464 
L 230.002759 167.104343 
L 217.688276 172.743234 
L 205.373793 178.978439 
L 193.05931 183.455057 
L 180.744828 188.403148 
L 168.430345 194.61055 
L 156.115862 200.010052 
L 143.801379 206.108538 
L 131.486897 213.074245 
L 119.172414 216.667908 
L 106.857931 218.859316 
L 94.543448 220.531692 
L 82.228966 222.641942 
L 69.914483 227.028463 
z
" clip-path="url(#p81da751386)" style="fill: #1f77b4; fill-opacity: 0.1"/>
   </g>
   <g id="PolyCollection_2">
    <path d="M 69.914483 227.028463 
L 69.914483 227.028463 
L 82.228966 225.126778 
L 94.543448 224.610927 
L 106.857931 224.024338 
L 119.172414 222.395954 
L 131.486897 220.905362 
L 143.801379 218.14663 
L 156.115862 214.601393 
L 168.430345 211.661197 
L 180.744828 208.245567 
L 193.05931 205.425196 
L 205.373793 202.741802 
L 217.688276 199.165255 
L 230.002759 195.681044 
L 242.317241 192.053088 
L 254.631724 188.37823 
L 266.946207 184.575934 
L 279.26069 181.027736 
L 291.575172 177.520245 
L 303.889655 174.345329 
L 316.204138 171.489556 
L 328.518621 168.955236 
L 340.833103 166.72599 
L 353.147586 164.832209 
L 365.462069 163.149164 
L 377.776552 161.796941 
L 390.091034 160.600063 
L 402.405517 159.499468 
L 402.405517 100.949919 
L 402.405517 100.949919 
L 390.091034 103.215444 
L 377.776552 105.86045 
L 365.462069 108.892467 
L 353.147586 112.395844 
L 340.833103 116.290348 
L 328.518621 120.638129 
L 316.204138 125.333254 
L 303.889655 130.547295 
L 291.575172 136.312812 
L 279.26069 142.285003 
L 266.946207 148.430854 
L 254.631724 155.052022 
L 242.317241 161.613657 
L 230.002759 167.98592 
L 217.688276 174.171213 
L 205.373793 180.973055 
L 193.05931 186.318043 
L 180.744828 191.965967 
L 168.430345 198.56566 
L 156.115862 203.864751 
L 143.801379 209.423832 
L 131.486897 214.718249 
L 119.172414 217.26496 
L 106.857931 219.885292 
L 94.543448 221.368887 
L 82.228966 223.277492 
L 69.914483 227.028463 
z
" clip-path="url(#p81da751386)" style="fill: #ff7f0e; fill-opacity: 0.1"/>
   </g>
   <g id="PolyCollection_3">
    <path d="M 69.914483 165.76418 
L 69.914483 295.488 
L 82.228966 224.651139 
L 94.543448 224.076917 
L 106.857931 223.207731 
L 119.172414 221.693304 
L 131.486897 220.283767 
L 143.801379 217.154287 
L 156.115862 213.184489 
L 168.430345 209.615861 
L 180.744828 205.845816 
L 193.05931 202.719124 
L 205.373793 199.607645 
L 217.688276 195.525598 
L 230.002759 191.975742 
L 242.317241 188.515901 
L 254.631724 185.216644 
L 266.946207 182.075542 
L 279.26069 178.954918 
L 291.575172 175.973388 
L 303.889655 173.073155 
L 316.204138 170.609383 
L 328.518621 168.221606 
L 340.833103 166.214093 
L 353.147586 164.470465 
L 365.462069 162.813713 
L 377.776552 161.314588 
L 390.091034 160.065263 
L 402.405517 159.100207 
L 402.405517 113.813896 
L 402.405517 113.813896 
L 390.091034 115.727601 
L 377.776552 118.013431 
L 365.462069 120.627557 
L 353.147586 123.475791 
L 340.833103 126.683655 
L 328.518621 130.212777 
L 316.204138 133.815151 
L 303.889655 137.909663 
L 291.575172 142.473084 
L 279.26069 147.084553 
L 266.946207 152.058391 
L 254.631724 157.198841 
L 242.317241 162.592941 
L 230.002759 168.099891 
L 217.688276 173.713764 
L 205.373793 179.941369 
L 193.05931 184.957445 
L 180.744828 189.986636 
L 168.430345 196.319648 
L 156.115862 201.798379 
L 143.801379 207.662239 
L 131.486897 213.367049 
L 119.172414 216.358933 
L 106.857931 219.209943 
L 94.543448 220.959959 
L 82.228966 222.842535 
L 69.914483 165.76418 
z
" clip-path="url(#p81da751386)" style="fill: #2ca02c; fill-opacity: 0.1"/>
   </g>
   <g id="PolyCollection_4">
    <path d="M 69.914483 224.337732 
L 69.914483 224.75248 
L 82.228966 222.552435 
L 94.543448 220.980747 
L 106.857931 219.363665 
L 119.172414 216.325967 
L 131.486897 213.329813 
L 143.801379 207.375793 
L 156.115862 199.682866 
L 168.430345 192.321545 
L 180.744828 184.48404 
L 193.05931 178.346436 
L 205.373793 172.162168 
L 217.688276 163.999137 
L 230.002759 156.70047 
L 242.317241 149.647498 
L 254.631724 142.982449 
L 266.946207 136.615822 
L 279.26069 130.385527 
L 291.575172 124.385356 
L 303.889655 118.653017 
L 316.204138 113.446392 
L 328.518621 108.802863 
L 340.833103 104.539427 
L 353.147586 100.797741 
L 365.462069 97.174218 
L 377.776552 93.952945 
L 390.091034 91.1165 
L 402.405517 88.471018 
L 402.405517 53.568 
L 402.405517 53.568 
L 390.091034 56.253436 
L 377.776552 59.450426 
L 365.462069 63.019652 
L 353.147586 66.943961 
L 340.833103 71.300399 
L 328.518621 76.340707 
L 316.204138 82.285212 
L 303.889655 89.049331 
L 291.575172 96.223068 
L 279.26069 103.840697 
L 266.946207 111.704643 
L 254.631724 119.724999 
L 242.317241 128.279025 
L 230.002759 137.228505 
L 217.688276 146.612181 
L 205.373793 157.224637 
L 193.05931 165.60081 
L 180.744828 173.369847 
L 168.430345 182.958643 
L 156.115862 191.834197 
L 143.801379 201.123177 
L 131.486897 209.582108 
L 119.172414 213.8834 
L 106.857931 217.10539 
L 94.543448 218.527614 
L 82.228966 220.691366 
L 69.914483 224.337732 
z
" clip-path="url(#p81da751386)" style="fill: #d62728; fill-opacity: 0.1"/>
   </g>
   <g id="matplotlib.axis_1">
    <g id="xtick_1">
     <g id="line2d_1">
      <defs>
       <path id="me8d4d98dde" d="M 0 0 
L 0 3.5 
" style="stroke: #000000; stroke-width: 0.8"/>
      </defs>
      <g>
       <use xlink:href="#me8d4d98dde" x="57.6" y="307.584" style="stroke: #000000; stroke-width: 0.8"/>
      </g>
     </g>
     <g id="text_1">
      <!-- 0 -->
      <g transform="translate(54.41875 322.182437)scale(0.1 -0.1)">
       <defs>
        <path id="DejaVuSans-30" d="M 2034 4250 
Q 1547 4250 1301 3770 
Q 1056 3291 1056 2328 
Q 1056 1369 1301 889 
Q 1547 409 2034 409 
Q 2525 409 2770 889 
Q 3016 1369 3016 2328 
Q 3016 3291 2770 3770 
Q 2525 4250 2034 4250 
z
M 2034 4750 
Q 2819 4750 3233 4129 
Q 3647 3509 3647 2328 
Q 3647 1150 3233 529 
Q 2819 -91 2034 -91 
Q 1250 -91 836 529 
Q 422 1150 422 2328 
Q 422 3509 836 4129 
Q 1250 4750 2034 4750 
z
" transform="scale(0.015625)"/>
       </defs>
       <use xlink:href="#DejaVuSans-30"/>
      </g>
     </g>
    </g>
    <g id="xtick_2">
     <g id="line2d_2">
      <g>
       <use xlink:href="#me8d4d98dde" x="119.172414" y="307.584" style="stroke: #000000; stroke-width: 0.8"/>
      </g>
     </g>
     <g id="text_2">
      <!-- 5 -->
      <g transform="translate(115.991164 322.182437)scale(0.1 -0.1)">
       <defs>
        <path id="DejaVuSans-35" d="M 691 4666 
L 3169 4666 
L 3169 4134 
L 1269 4134 
L 1269 2991 
Q 1406 3038 1543 3061 
Q 1681 3084 1819 3084 
Q 2600 3084 3056 2656 
Q 3513 2228 3513 1497 
Q 3513 744 3044 326 
Q 2575 -91 1722 -91 
Q 1428 -91 1123 -41 
Q 819 9 494 109 
L 494 744 
Q 775 591 1075 516 
Q 1375 441 1709 441 
Q 2250 441 2565 725 
Q 2881 1009 2881 1497 
Q 2881 1984 2565 2268 
Q 2250 2553 1709 2553 
Q 1456 2553 1204 2497 
Q 953 2441 691 2322 
L 691 4666 
z
" transform="scale(0.015625)"/>
       </defs>
       <use xlink:href="#DejaVuSans-35"/>
      </g>
     </g>
    </g>
    <g id="xtick_3">
     <g id="line2d_3">
      <g>
       <use xlink:href="#me8d4d98dde" x="180.744828" y="307.584" style="stroke: #000000; stroke-width: 0.8"/>
      </g>
     </g>
     <g id="text_3">
      <!-- 10 -->
      <g transform="translate(174.382328 322.182437)scale(0.1 -0.1)">
       <defs>
        <path id="DejaVuSans-31" d="M 794 531 
L 1825 531 
L 1825 4091 
L 703 3866 
L 703 4441 
L 1819 4666 
L 2450 4666 
L 2450 531 
L 3481 531 
L 3481 0 
L 794 0 
L 794 531 
z
" transform="scale(0.015625)"/>
       </defs>
       <use xlink:href="#DejaVuSans-31"/>
       <use xlink:href="#DejaVuSans-30" x="63.623047"/>
      </g>
     </g>
    </g>
    <g id="xtick_4">
     <g id="line2d_4">
      <g>
       <use xlink:href="#me8d4d98dde" x="242.317241" y="307.584" style="stroke: #000000; stroke-width: 0.8"/>
      </g>
     </g>
     <g id="text_4">
      <!-- 15 -->
      <g transform="translate(235.954741 322.182437)scale(0.1 -0.1)">
       <use xlink:href="#DejaVuSans-31"/>
       <use xlink:href="#DejaVuSans-35" x="63.623047"/>
      </g>
     </g>
    </g>
    <g id="xtick_5">
     <g id="line2d_5">
      <g>
       <use xlink:href="#me8d4d98dde" x="303.889655" y="307.584" style="stroke: #000000; stroke-width: 0.8"/>
      </g>
     </g>
     <g id="text_5">
      <!-- 20 -->
      <g transform="translate(297.527155 322.182437)scale(0.1 -0.1)">
       <defs>
        <path id="DejaVuSans-32" d="M 1228 531 
L 3431 531 
L 3431 0 
L 469 0 
L 469 531 
Q 828 903 1448 1529 
Q 2069 2156 2228 2338 
Q 2531 2678 2651 2914 
Q 2772 3150 2772 3378 
Q 2772 3750 2511 3984 
Q 2250 4219 1831 4219 
Q 1534 4219 1204 4116 
Q 875 4013 500 3803 
L 500 4441 
Q 881 4594 1212 4672 
Q 1544 4750 1819 4750 
Q 2544 4750 2975 4387 
Q 3406 4025 3406 3419 
Q 3406 3131 3298 2873 
Q 3191 2616 2906 2266 
Q 2828 2175 2409 1742 
Q 1991 1309 1228 531 
z
" transform="scale(0.015625)"/>
       </defs>
       <use xlink:href="#DejaVuSans-32"/>
       <use xlink:href="#DejaVuSans-30" x="63.623047"/>
      </g>
     </g>
    </g>
    <g id="xtick_6">
     <g id="line2d_6">
      <g>
       <use xlink:href="#me8d4d98dde" x="365.462069" y="307.584" style="stroke: #000000; stroke-width: 0.8"/>
      </g>
     </g>
     <g id="text_6">
      <!-- 25 -->
      <g transform="translate(359.099569 322.182437)scale(0.1 -0.1)">
       <use xlink:href="#DejaVuSans-32"/>
       <use xlink:href="#DejaVuSans-35" x="63.623047"/>
      </g>
     </g>
    </g>
    <g id="text_7">
     <!-- time (d) -->
     <g transform="translate(216.199062 335.860562)scale(0.1 -0.1)">
      <defs>
       <path id="DejaVuSans-74" d="M 1172 4494 
L 1172 3500 
L 2356 3500 
L 2356 3053 
L 1172 3053 
L 1172 1153 
Q 1172 725 1289 603 
Q 1406 481 1766 481 
L 2356 481 
L 2356 0 
L 1766 0 
Q 1100 0 847 248 
Q 594 497 594 1153 
L 594 3053 
L 172 3053 
L 172 3500 
L 594 3500 
L 594 4494 
L 1172 4494 
z
" transform="scale(0.015625)"/>
       <path id="DejaVuSans-69" d="M 603 3500 
L 1178 3500 
L 1178 0 
L 603 0 
L 603 3500 
z
M 603 4863 
L 1178 4863 
L 1178 4134 
L 603 4134 
L 603 4863 
z
" transform="scale(0.015625)"/>
       <path id="DejaVuSans-6d" d="M 3328 2828 
Q 3544 3216 3844 3400 
Q 4144 3584 4550 3584 
Q 5097 3584 5394 3201 
Q 5691 2819 5691 2113 
L 5691 0 
L 5113 0 
L 5113 2094 
Q 5113 2597 4934 2840 
Q 4756 3084 4391 3084 
Q 3944 3084 3684 2787 
Q 3425 2491 3425 1978 
L 3425 0 
L 2847 0 
L 2847 2094 
Q 2847 2600 2669 2842 
Q 2491 3084 2119 3084 
Q 1678 3084 1418 2786 
Q 1159 2488 1159 1978 
L 1159 0 
L 581 0 
L 581 3500 
L 1159 3500 
L 1159 2956 
Q 1356 3278 1631 3431 
Q 1906 3584 2284 3584 
Q 2666 3584 2933 3390 
Q 3200 3197 3328 2828 
z
" transform="scale(0.015625)"/>
       <path id="DejaVuSans-65" d="M 3597 1894 
L 3597 1613 
L 953 1613 
Q 991 1019 1311 708 
Q 1631 397 2203 397 
Q 2534 397 2845 478 
Q 3156 559 3463 722 
L 3463 178 
Q 3153 47 2828 -22 
Q 2503 -91 2169 -91 
Q 1331 -91 842 396 
Q 353 884 353 1716 
Q 353 2575 817 3079 
Q 1281 3584 2069 3584 
Q 2775 3584 3186 3129 
Q 3597 2675 3597 1894 
z
M 3022 2063 
Q 3016 2534 2758 2815 
Q 2500 3097 2075 3097 
Q 1594 3097 1305 2825 
Q 1016 2553 972 2059 
L 3022 2063 
z
" transform="scale(0.015625)"/>
       <path id="DejaVuSans-20" transform="scale(0.015625)"/>
       <path id="DejaVuSans-28" d="M 1984 4856 
Q 1566 4138 1362 3434 
Q 1159 2731 1159 2009 
Q 1159 1288 1364 580 
Q 1569 -128 1984 -844 
L 1484 -844 
Q 1016 -109 783 600 
Q 550 1309 550 2009 
Q 550 2706 781 3412 
Q 1013 4119 1484 4856 
L 1984 4856 
z
" transform="scale(0.015625)"/>
       <path id="DejaVuSans-64" d="M 2906 2969 
L 2906 4863 
L 3481 4863 
L 3481 0 
L 2906 0 
L 2906 525 
Q 2725 213 2448 61 
Q 2172 -91 1784 -91 
Q 1150 -91 751 415 
Q 353 922 353 1747 
Q 353 2572 751 3078 
Q 1150 3584 1784 3584 
Q 2172 3584 2448 3432 
Q 2725 3281 2906 2969 
z
M 947 1747 
Q 947 1113 1208 752 
Q 1469 391 1925 391 
Q 2381 391 2643 752 
Q 2906 1113 2906 1747 
Q 2906 2381 2643 2742 
Q 2381 3103 1925 3103 
Q 1469 3103 1208 2742 
Q 947 2381 947 1747 
z
" transform="scale(0.015625)"/>
       <path id="DejaVuSans-29" d="M 513 4856 
L 1013 4856 
Q 1481 4119 1714 3412 
Q 1947 2706 1947 2009 
Q 1947 1309 1714 600 
Q 1481 -109 1013 -844 
L 513 -844 
Q 928 -128 1133 580 
Q 1338 1288 1338 2009 
Q 1338 2731 1133 3434 
Q 928 4138 513 4856 
z
" transform="scale(0.015625)"/>
      </defs>
      <use xlink:href="#DejaVuSans-74"/>
      <use xlink:href="#DejaVuSans-69" x="39.208984"/>
      <use xlink:href="#DejaVuSans-6d" x="66.992188"/>
      <use xlink:href="#DejaVuSans-65" x="164.404297"/>
      <use xlink:href="#DejaVuSans-20" x="225.927734"/>
      <use xlink:href="#DejaVuSans-28" x="257.714844"/>
      <use xlink:href="#DejaVuSans-64" x="296.728516"/>
      <use xlink:href="#DejaVuSans-29" x="360.205078"/>
     </g>
    </g>
   </g>
   <g id="matplotlib.axis_2">
    <g id="ytick_1">
     <g id="line2d_7">
      <defs>
       <path id="m2122e9b022" d="M 0 0 
L -3.5 0 
" style="stroke: #000000; stroke-width: 0.8"/>
      </defs>
      <g>
       <use xlink:href="#m2122e9b022" x="57.6" y="273.632046" style="stroke: #000000; stroke-width: 0.8"/>
      </g>
     </g>
     <g id="text_8">
      <!-- −0.005 -->
      <g transform="translate(13.592188 277.431265)scale(0.1 -0.1)">
       <defs>
        <path id="DejaVuSans-2212" d="M 678 2272 
L 4684 2272 
L 4684 1741 
L 678 1741 
L 678 2272 
z
" transform="scale(0.015625)"/>
        <path id="DejaVuSans-2e" d="M 684 794 
L 1344 794 
L 1344 0 
L 684 0 
L 684 794 
z
" transform="scale(0.015625)"/>
       </defs>
       <use xlink:href="#DejaVuSans-2212"/>
       <use xlink:href="#DejaVuSans-30" x="83.789062"/>
       <use xlink:href="#DejaVuSans-2e" x="147.412109"/>
       <use xlink:href="#DejaVuSans-30" x="179.199219"/>
       <use xlink:href="#DejaVuSans-30" x="242.822266"/>
       <use xlink:href="#DejaVuSans-35" x="306.445312"/>
      </g>
     </g>
    </g>
    <g id="ytick_2">
     <g id="line2d_8">
      <g>
       <use xlink:href="#m2122e9b022" x="57.6" y="227.028463" style="stroke: #000000; stroke-width: 0.8"/>
      </g>
     </g>
     <g id="text_9">
      <!-- 0.000 -->
      <g transform="translate(21.971875 230.827682)scale(0.1 -0.1)">
       <use xlink:href="#DejaVuSans-30"/>
       <use xlink:href="#DejaVuSans-2e" x="63.623047"/>
       <use xlink:href="#DejaVuSans-30" x="95.410156"/>
       <use xlink:href="#DejaVuSans-30" x="159.033203"/>
       <use xlink:href="#DejaVuSans-30" x="222.65625"/>
      </g>
     </g>
    </g>
    <g id="ytick_3">
     <g id="line2d_9">
      <g>
       <use xlink:href="#m2122e9b022" x="57.6" y="180.42488" style="stroke: #000000; stroke-width: 0.8"/>
      </g>
     </g>
     <g id="text_10">
      <!-- 0.005 -->
      <g transform="translate(21.971875 184.224099)scale(0.1 -0.1)">
       <use xlink:href="#DejaVuSans-30"/>
       <use xlink:href="#DejaVuSans-2e" x="63.623047"/>
       <use xlink:href="#DejaVuSans-30" x="95.410156"/>
       <use xlink:href="#DejaVuSans-30" x="159.033203"/>
       <use xlink:href="#DejaVuSans-35" x="222.65625"/>
      </g>
     </g>
    </g>
    <g id="ytick_4">
     <g id="line2d_10">
      <g>
       <use xlink:href="#m2122e9b022" x="57.6" y="133.821297" style="stroke: #000000; stroke-width: 0.8"/>
      </g>
     </g>
     <g id="text_11">
      <!-- 0.010 -->
      <g transform="translate(21.971875 137.620516)scale(0.1 -0.1)">
       <use xlink:href="#DejaVuSans-30"/>
       <use xlink:href="#DejaVuSans-2e" x="63.623047"/>
       <use xlink:href="#DejaVuSans-30" x="95.410156"/>
       <use xlink:href="#DejaVuSans-31" x="159.033203"/>
       <use xlink:href="#DejaVuSans-30" x="222.65625"/>
      </g>
     </g>
    </g>
    <g id="ytick_5">
     <g id="line2d_11">
      <g>
       <use xlink:href="#m2122e9b022" x="57.6" y="87.217714" style="stroke: #000000; stroke-width: 0.8"/>
      </g>
     </g>
     <g id="text_12">
      <!-- 0.015 -->
      <g transform="translate(21.971875 91.016933)scale(0.1 -0.1)">
       <use xlink:href="#DejaVuSans-30"/>
       <use xlink:href="#DejaVuSans-2e" x="63.623047"/>
       <use xlink:href="#DejaVuSans-30" x="95.410156"/>
       <use xlink:href="#DejaVuSans-31" x="159.033203"/>
       <use xlink:href="#DejaVuSans-35" x="222.65625"/>
      </g>
     </g>
    </g>
    <g id="text_13">
     <!--  Krs (cm$^2$ d$^{-1}$ ) -->
     <g transform="translate(7.5125 211.278)rotate(-90)scale(0.1 -0.1)">
      <defs>
       <path id="DejaVuSans-4b" d="M 628 4666 
L 1259 4666 
L 1259 2694 
L 3353 4666 
L 4166 4666 
L 1850 2491 
L 4331 0 
L 3500 0 
L 1259 2247 
L 1259 0 
L 628 0 
L 628 4666 
z
" transform="scale(0.015625)"/>
       <path id="DejaVuSans-72" d="M 2631 2963 
Q 2534 3019 2420 3045 
Q 2306 3072 2169 3072 
Q 1681 3072 1420 2755 
Q 1159 2438 1159 1844 
L 1159 0 
L 581 0 
L 581 3500 
L 1159 3500 
L 1159 2956 
Q 1341 3275 1631 3429 
Q 1922 3584 2338 3584 
Q 2397 3584 2469 3576 
Q 2541 3569 2628 3553 
L 2631 2963 
z
" transform="scale(0.015625)"/>
       <path id="DejaVuSans-73" d="M 2834 3397 
L 2834 2853 
Q 2591 2978 2328 3040 
Q 2066 3103 1784 3103 
Q 1356 3103 1142 2972 
Q 928 2841 928 2578 
Q 928 2378 1081 2264 
Q 1234 2150 1697 2047 
L 1894 2003 
Q 2506 1872 2764 1633 
Q 3022 1394 3022 966 
Q 3022 478 2636 193 
Q 2250 -91 1575 -91 
Q 1294 -91 989 -36 
Q 684 19 347 128 
L 347 722 
Q 666 556 975 473 
Q 1284 391 1588 391 
Q 1994 391 2212 530 
Q 2431 669 2431 922 
Q 2431 1156 2273 1281 
Q 2116 1406 1581 1522 
L 1381 1569 
Q 847 1681 609 1914 
Q 372 2147 372 2553 
Q 372 3047 722 3315 
Q 1072 3584 1716 3584 
Q 2034 3584 2315 3537 
Q 2597 3491 2834 3397 
z
" transform="scale(0.015625)"/>
       <path id="DejaVuSans-63" d="M 3122 3366 
L 3122 2828 
Q 2878 2963 2633 3030 
Q 2388 3097 2138 3097 
Q 1578 3097 1268 2742 
Q 959 2388 959 1747 
Q 959 1106 1268 751 
Q 1578 397 2138 397 
Q 2388 397 2633 464 
Q 2878 531 3122 666 
L 3122 134 
Q 2881 22 2623 -34 
Q 2366 -91 2075 -91 
Q 1284 -91 818 406 
Q 353 903 353 1747 
Q 353 2603 823 3093 
Q 1294 3584 2113 3584 
Q 2378 3584 2631 3529 
Q 2884 3475 3122 3366 
z
" transform="scale(0.015625)"/>
      </defs>
      <use xlink:href="#DejaVuSans-20" transform="translate(0 0.765625)"/>
      <use xlink:href="#DejaVuSans-4b" transform="translate(31.787109 0.765625)"/>
      <use xlink:href="#DejaVuSans-72" transform="translate(97.363281 0.765625)"/>
      <use xlink:href="#DejaVuSans-73" transform="translate(138.476562 0.765625)"/>
      <use xlink:href="#DejaVuSans-20" transform="translate(190.576172 0.765625)"/>
      <use xlink:href="#DejaVuSans-28" transform="translate(222.363281 0.765625)"/>
      <use xlink:href="#DejaVuSans-63" transform="translate(261.376953 0.765625)"/>
      <use xlink:href="#DejaVuSans-6d" transform="translate(316.357422 0.765625)"/>
      <use xlink:href="#DejaVuSans-32" transform="translate(414.726562 39.046875)scale(0.7)"/>
      <use xlink:href="#DejaVuSans-20" transform="translate(461.99707 0.765625)"/>
      <use xlink:href="#DejaVuSans-64" transform="translate(493.78418 0.765625)"/>
      <use xlink:href="#DejaVuSans-2212" transform="translate(558.217773 39.046875)scale(0.7)"/>
      <use xlink:href="#DejaVuSans-31" transform="translate(616.870117 39.046875)scale(0.7)"/>
      <use xlink:href="#DejaVuSans-20" transform="translate(664.140625 0.765625)"/>
      <use xlink:href="#DejaVuSans-29" transform="translate(695.927734 0.765625)"/>
     </g>
    </g>
   </g>
   <g id="line2d_12">
    <path d="M 69.914483 227.028463 
L 82.228966 223.371004 
L 94.543448 221.957424 
L 106.857931 220.697718 
L 119.172414 218.877987 
L 131.486897 215.826959 
L 143.801379 210.067005 
L 156.115862 204.784925 
L 168.430345 200.0822 
L 180.744828 194.90684 
L 193.05931 190.71828 
L 205.373793 187.032585 
L 217.688276 181.860733 
L 230.002759 177.223417 
L 242.317241 172.570275 
L 254.631724 168.022221 
L 266.946207 163.858291 
L 279.26069 160.055643 
L 291.575172 156.560913 
L 303.889655 153.382052 
L 316.204138 150.633297 
L 328.518621 148.32907 
L 340.833103 146.295296 
L 353.147586 144.369402 
L 365.462069 142.544021 
L 377.776552 140.932504 
L 390.091034 139.283262 
L 402.405517 137.8308 
" clip-path="url(#p81da751386)" style="fill: none; stroke: #1f77b4; stroke-width: 1.5; stroke-linecap: square"/>
   </g>
   <g id="line2d_13">
    <path d="M 69.914483 227.028463 
L 82.228966 224.202135 
L 94.543448 222.989907 
L 106.857931 221.954815 
L 119.172414 219.830457 
L 131.486897 217.811805 
L 143.801379 213.785231 
L 156.115862 209.233072 
L 168.430345 205.113429 
L 180.744828 200.105767 
L 193.05931 195.87162 
L 205.373793 191.857429 
L 217.688276 186.668234 
L 230.002759 181.833482 
L 242.317241 176.833372 
L 254.631724 171.715126 
L 266.946207 166.503394 
L 279.26069 161.65637 
L 291.575172 156.916528 
L 303.889655 152.446312 
L 316.204138 148.411405 
L 328.518621 144.796683 
L 340.833103 141.508169 
L 353.147586 138.614026 
L 365.462069 136.020815 
L 377.776552 133.828695 
L 390.091034 131.907754 
L 402.405517 130.224694 
" clip-path="url(#p81da751386)" style="fill: none; stroke: #ff7f0e; stroke-width: 1.5; stroke-linecap: square"/>
   </g>
   <g id="line2d_14">
    <path d="M 69.914483 230.62609 
L 82.228966 223.746837 
L 94.543448 222.518438 
L 106.857931 221.208837 
L 119.172414 219.026119 
L 131.486897 216.825408 
L 143.801379 212.408263 
L 156.115862 207.491434 
L 168.430345 202.967755 
L 180.744828 197.916226 
L 193.05931 193.838285 
L 205.373793 189.774507 
L 217.688276 184.619681 
L 230.002759 180.037817 
L 242.317241 175.554421 
L 254.631724 171.207742 
L 266.946207 167.066966 
L 279.26069 163.019736 
L 291.575172 159.223236 
L 303.889655 155.491409 
L 316.204138 152.212267 
L 328.518621 149.217191 
L 340.833103 146.448874 
L 353.147586 143.973128 
L 365.462069 141.720635 
L 377.776552 139.664009 
L 390.091034 137.896432 
L 402.405517 136.457051 
" clip-path="url(#p81da751386)" style="fill: none; stroke: #2ca02c; stroke-width: 1.5; stroke-linecap: square"/>
   </g>
   <g id="line2d_15">
    <path d="M 69.914483 224.545106 
L 82.228966 221.6219 
L 94.543448 219.75418 
L 106.857931 218.234528 
L 119.172414 215.104684 
L 131.486897 211.455961 
L 143.801379 204.249485 
L 156.115862 195.758531 
L 168.430345 187.640094 
L 180.744828 178.926944 
L 193.05931 171.973623 
L 205.373793 164.693402 
L 217.688276 155.305659 
L 230.002759 146.964487 
L 242.317241 138.963262 
L 254.631724 131.353724 
L 266.946207 124.160232 
L 279.26069 117.113112 
L 291.575172 110.304212 
L 303.889655 103.851174 
L 316.204138 97.865802 
L 328.518621 92.571785 
L 340.833103 87.919913 
L 353.147586 83.870851 
L 365.462069 80.096935 
L 377.776552 76.701686 
L 390.091034 73.684968 
L 402.405517 71.019509 
" clip-path="url(#p81da751386)" style="fill: none; stroke: #d62728; stroke-width: 1.5; stroke-linecap: square"/>
   </g>
   <g id="patch_3">
    <path d="M 57.6 307.584 
L 57.6 41.472 
" style="fill: none; stroke: #000000; stroke-width: 0.8; stroke-linejoin: miter; stroke-linecap: square"/>
   </g>
   <g id="patch_4">
    <path d="M 414.72 307.584 
L 414.72 41.472 
" style="fill: none; stroke: #000000; stroke-width: 0.8; stroke-linejoin: miter; stroke-linecap: square"/>
   </g>
   <g id="patch_5">
    <path d="M 57.6 307.584 
L 414.72 307.584 
" style="fill: none; stroke: #000000; stroke-width: 0.8; stroke-linejoin: miter; stroke-linecap: square"/>
   </g>
   <g id="patch_6">
    <path d="M 57.6 41.472 
L 414.72 41.472 
" style="fill: none; stroke: #000000; stroke-width: 0.8; stroke-linejoin: miter; stroke-linecap: square"/>
   </g>
   <g id="legend_1">
    <g id="patch_7">
     <path d="M 64.6 108.1845 
L 108.992188 108.1845 
Q 110.992188 108.1845 110.992188 106.1845 
L 110.992188 48.472 
Q 110.992188 46.472 108.992188 46.472 
L 64.6 46.472 
Q 62.6 46.472 62.6 48.472 
L 62.6 106.1845 
Q 62.6 108.1845 64.6 108.1845 
z
" style="fill: #ffffff; opacity: 0.8; stroke: #cccccc; stroke-linejoin: miter"/>
    </g>
    <g id="line2d_16">
     <path d="M 66.6 54.570438 
L 76.6 54.570438 
L 86.6 54.570438 
" style="fill: none; stroke: #1f77b4; stroke-width: 1.5; stroke-linecap: square"/>
    </g>
    <g id="text_14">
     <!-- P0 -->
     <g transform="translate(94.6 58.070438)scale(0.1 -0.1)">
      <defs>
       <path id="DejaVuSans-50" d="M 1259 4147 
L 1259 2394 
L 2053 2394 
Q 2494 2394 2734 2622 
Q 2975 2850 2975 3272 
Q 2975 3691 2734 3919 
Q 2494 4147 2053 4147 
L 1259 4147 
z
M 628 4666 
L 2053 4666 
Q 2838 4666 3239 4311 
Q 3641 3956 3641 3272 
Q 3641 2581 3239 2228 
Q 2838 1875 2053 1875 
L 1259 1875 
L 1259 0 
L 628 0 
L 628 4666 
z
" transform="scale(0.015625)"/>
      </defs>
      <use xlink:href="#DejaVuSans-50"/>
      <use xlink:href="#DejaVuSans-30" x="60.302734"/>
     </g>
    </g>
    <g id="line2d_17">
     <path d="M 66.6 69.248563 
L 76.6 69.248563 
L 86.6 69.248563 
" style="fill: none; stroke: #ff7f0e; stroke-width: 1.5; stroke-linecap: square"/>
    </g>
    <g id="text_15">
     <!-- P1 -->
     <g transform="translate(94.6 72.748563)scale(0.1 -0.1)">
      <use xlink:href="#DejaVuSans-50"/>
      <use xlink:href="#DejaVuSans-31" x="60.302734"/>
     </g>
    </g>
    <g id="line2d_18">
     <path d="M 66.6 83.926688 
L 76.6 83.926688 
L 86.6 83.926688 
" style="fill: none; stroke: #2ca02c; stroke-width: 1.5; stroke-linecap: square"/>
    </g>
    <g id="text_16">
     <!-- P2 -->
     <g transform="translate(94.6 87.426688)scale(0.1 -0.1)">
      <use xlink:href="#DejaVuSans-50"/>
      <use xlink:href="#DejaVuSans-32" x="60.302734"/>
     </g>
    </g>
    <g id="line2d_19">
     <path d="M 66.6 98.604813 
L 76.6 98.604813 
L 86.6 98.604813 
" style="fill: none; stroke: #d62728; stroke-width: 1.5; stroke-linecap: square"/>
    </g>
    <g id="text_17">
     <!-- P3 -->
     <g transform="translate(94.6 102.104813)scale(0.1 -0.1)">
      <defs>
       <path id="DejaVuSans-33" d="M 2597 2516 
Q 3050 2419 3304 2112 
Q 3559 1806 3559 1356 
Q 3559 666 3084 287 
Q 2609 -91 1734 -91 
Q 1441 -91 1130 -33 
Q 819 25 488 141 
L 488 750 
Q 750 597 1062 519 
Q 1375 441 1716 441 
Q 2309 441 2620 675 
Q 2931 909 2931 1356 
Q 2931 1769 2642 2001 
Q 2353 2234 1838 2234 
L 1294 2234 
L 1294 2753 
L 1863 2753 
Q 2328 2753 2575 2939 
Q 2822 3125 2822 3475 
Q 2822 3834 2567 4026 
Q 2313 4219 1838 4219 
Q 1578 4219 1281 4162 
Q 984 4106 628 3988 
L 628 4550 
Q 988 4650 1302 4700 
Q 1616 4750 1894 4750 
Q 2613 4750 3031 4423 
Q 3450 4097 3450 3541 
Q 3450 3153 3228 2886 
Q 3006 2619 2597 2516 
z
" transform="scale(0.015625)"/>
      </defs>
      <use xlink:href="#DejaVuSans-50"/>
      <use xlink:href="#DejaVuSans-33" x="60.302734"/>
     </g>
    </g>
   </g>
  </g>
 </g>
 <defs>
  <clipPath id="p81da751386">
   <rect x="57.6" y="41.472" width="357.12" height="266.112"/>
  </clipPath>
 </defs>
</svg>
