<?xml version="1.0" encoding="utf-8" standalone="no"?>
<!DOCTYPE svg PUBLIC "-//W3C//DTD SVG 1.1//EN"
  "http://www.w3.org/Graphics/SVG/1.1/DTD/svg11.dtd">
<svg xmlns:xlink="http://www.w3.org/1999/xlink" width="460.8pt" height="345.6pt" viewBox="0 0 460.8 345.6" xmlns="http://www.w3.org/2000/svg" version="1.1">
 <metadata>
  <rdf:RDF xmlns:dc="http://purl.org/dc/elements/1.1/" xmlns:cc="http://creativecommons.org/ns#" xmlns:rdf="http://www.w3.org/1999/02/22-rdf-syntax-ns#">
   <cc:Work>
    <dc:type rdf:resource="http://purl.org/dc/dcmitype/StillImage"/>
    <dc:date>2023-07-04T10:27:07.149485</dc:date>
    <dc:format>image/svg+xml</dc:format>
    <dc:creator>
     <cc:Agent>
      <dc:title>Matplotlib v3.5.0, https://matplotlib.org/</dc:title>
     </cc:Agent>
    </dc:creator>
   </cc:Work>
  </rdf:RDF>
 </metadata>
 <defs>
  <style type="text/css">*{stroke-linejoin: round; stroke-linecap: butt}</style>
 </defs>
 <g id="figure_1">
  <g id="patch_1">
   <path d="M 0 345.6 
L 460.8 345.6 
L 460.8 0 
L 0 0 
z
" style="fill: #ffffff"/>
  </g>
  <g id="axes_1">
   <g id="patch_2">
    <path d="M 57.6 307.584 
L 414.72 307.584 
L 414.72 41.472 
L 57.6 41.472 
z
" style="fill: #ffffff"/>
   </g>
   <g id="PolyCollection_1">
    <path d="M 69.914483 295.488 
L 69.914483 295.488 
L 82.228966 295.487678 
L 94.543448 293.462307 
L 106.857931 288.083196 
L 119.172414 283.43725 
L 131.486897 277.922201 
L 143.801379 268.948989 
L 156.115862 259.843509 
L 168.430345 251.586462 
L 180.744828 242.169112 
L 193.05931 233.693033 
L 205.373793 226.252144 
L 217.688276 216.623815 
L 230.002759 207.74473 
L 242.317241 199.14463 
L 254.631724 190.142946 
L 266.946207 181.759974 
L 279.26069 174.180786 
L 291.575172 166.720807 
L 303.889655 159.999372 
L 316.204138 154.204156 
L 328.518621 148.715057 
L 340.833103 143.827817 
L 353.147586 139.453025 
L 365.462069 135.156183 
L 377.776552 131.172766 
L 390.091034 127.390143 
L 402.405517 123.912012 
L 402.405517 74.165348 
L 402.405517 74.165348 
L 390.091034 79.334126 
L 377.776552 84.686264 
L 365.462069 90.36371 
L 353.147586 96.75124 
L 340.833103 103.172103 
L 328.518621 110.165921 
L 316.204138 117.868182 
L 303.889655 125.878146 
L 291.575172 134.877295 
L 279.26069 144.562018 
L 266.946207 154.043038 
L 254.631724 164.525857 
L 242.317241 175.798481 
L 230.002759 186.408624 
L 217.688276 197.696164 
L 205.373793 209.755521 
L 193.05931 219.336367 
L 180.744828 229.949214 
L 168.430345 241.621767 
L 156.115862 251.127939 
L 143.801379 261.581082 
L 131.486897 272.60437 
L 119.172414 279.389526 
L 106.857931 286.03657 
L 94.543448 293.303774 
L 82.228966 295.487671 
L 69.914483 295.488 
z
" clip-path="url(#pb37fa22122)" style="fill: #1f77b4; fill-opacity: 0.1"/>
   </g>
   <g id="PolyCollection_2">
    <path d="M 69.914483 295.488 
L 69.914483 295.488 
L 82.228966 295.487571 
L 94.543448 292.692593 
L 106.857931 289.396862 
L 119.172414 284.53122 
L 131.486897 280.470961 
L 143.801379 273.646905 
L 156.115862 265.405785 
L 168.430345 258.392419 
L 180.744828 250.059844 
L 193.05931 242.856611 
L 205.373793 235.918468 
L 217.688276 227.217606 
L 230.002759 218.916222 
L 242.317241 210.528556 
L 254.631724 201.725329 
L 266.946207 193.082076 
L 279.26069 184.989291 
L 291.575172 176.749531 
L 303.889655 169.333314 
L 316.204138 162.626656 
L 328.518621 156.312495 
L 340.833103 150.755927 
L 353.147586 145.842528 
L 365.462069 141.276471 
L 377.776552 137.441948 
L 390.091034 133.985601 
L 402.405517 130.699708 
L 402.405517 53.568 
L 402.405517 53.568 
L 390.091034 59.29698 
L 377.776552 65.364269 
L 365.462069 72.062436 
L 353.147586 79.668562 
L 340.833103 87.501737 
L 328.518621 96.091701 
L 316.204138 105.571607 
L 303.889655 115.266499 
L 291.575172 125.744718 
L 279.26069 137.079951 
L 266.946207 148.14837 
L 254.631724 159.954752 
L 242.317241 172.385173 
L 230.002759 183.980307 
L 217.688276 195.620832 
L 205.373793 208.493213 
L 193.05931 219.014669 
L 180.744828 229.894415 
L 168.430345 242.187729 
L 156.115862 252.03045 
L 143.801379 261.920975 
L 131.486897 272.088787 
L 119.172414 278.405265 
L 106.857931 284.584326 
L 94.543448 291.680764 
L 82.228966 295.487552 
L 69.914483 295.488 
z
" clip-path="url(#pb37fa22122)" style="fill: #ff7f0e; fill-opacity: 0.1"/>
   </g>
   <g id="PolyCollection_3">
    <path d="M 69.914483 295.488 
L 69.914483 295.488 
L 82.228966 295.487571 
L 94.543448 292.375599 
L 106.857931 288.101405 
L 119.172414 284.581149 
L 131.486897 280.977584 
L 143.801379 274.2855 
L 156.115862 267.173218 
L 168.430345 260.55291 
L 180.744828 252.793481 
L 193.05931 246.221197 
L 205.373793 239.761484 
L 217.688276 231.548371 
L 230.002759 224.568096 
L 242.317241 217.850772 
L 254.631724 210.747153 
L 266.946207 204.484273 
L 279.26069 198.428473 
L 291.575172 192.166984 
L 303.889655 186.515328 
L 316.204138 181.560757 
L 328.518621 176.480807 
L 340.833103 172.233401 
L 353.147586 168.494632 
L 365.462069 164.691857 
L 377.776552 161.404799 
L 390.091034 158.532396 
L 402.405517 155.927317 
L 402.405517 116.262605 
L 402.405517 116.262605 
L 390.091034 120.081469 
L 377.776552 124.048394 
L 365.462069 128.452799 
L 353.147586 133.530002 
L 340.833103 138.698681 
L 328.518621 144.32398 
L 316.204138 150.680884 
L 303.889655 157.04336 
L 291.575172 163.981198 
L 279.26069 171.793151 
L 266.946207 179.319998 
L 254.631724 187.293898 
L 242.317241 196.33967 
L 230.002759 204.68281 
L 217.688276 213.349553 
L 205.373793 223.363182 
L 193.05931 231.494627 
L 180.744828 239.78766 
L 168.430345 249.908558 
L 156.115862 257.785909 
L 143.801379 265.770741 
L 131.486897 274.650552 
L 119.172414 280.189714 
L 106.857931 285.363898 
L 94.543448 291.838982 
L 82.228966 295.487548 
L 69.914483 295.488 
z
" clip-path="url(#pb37fa22122)" style="fill: #2ca02c; fill-opacity: 0.1"/>
   </g>
   <g id="PolyCollection_4">
    <path d="M 69.914483 295.487924 
L 69.914483 295.487924 
L 82.228966 295.453478 
L 94.543448 289.913384 
L 106.857931 283.657503 
L 119.172414 278.616436 
L 131.486897 272.159726 
L 143.801379 262.262581 
L 156.115862 252.655526 
L 168.430345 242.312926 
L 180.744828 230.576694 
L 193.05931 221.442023 
L 205.373793 211.46154 
L 217.688276 199.558414 
L 230.002759 189.722969 
L 242.317241 179.515176 
L 254.631724 169.065983 
L 266.946207 160.169053 
L 279.26069 151.078263 
L 291.575172 141.911064 
L 303.889655 134.022262 
L 316.204138 126.305176 
L 328.518621 118.837437 
L 340.833103 112.513863 
L 353.147586 106.456306 
L 365.462069 100.480584 
L 377.776552 95.401106 
L 390.091034 90.605645 
L 402.405517 85.970341 
L 402.405517 67.610332 
L 402.405517 67.610332 
L 390.091034 72.480207 
L 377.776552 77.639965 
L 365.462069 82.974947 
L 353.147586 89.263298 
L 340.833103 95.753428 
L 328.518621 102.516763 
L 316.204138 110.715213 
L 303.889655 119.170845 
L 291.575172 127.660611 
L 279.26069 137.669187 
L 266.946207 147.523034 
L 254.631724 157.131818 
L 242.317241 168.601281 
L 230.002759 179.707595 
L 217.688276 190.403897 
L 205.373793 203.450148 
L 193.05931 214.632887 
L 180.744828 224.618539 
L 168.430345 237.353553 
L 156.115862 248.437839 
L 143.801379 258.436983 
L 131.486897 269.791891 
L 119.172414 277.233718 
L 106.857931 282.434472 
L 94.543448 289.456477 
L 82.228966 295.452611 
L 69.914483 295.487924 
z
" clip-path="url(#pb37fa22122)" style="fill: #d62728; fill-opacity: 0.1"/>
   </g>
   <g id="matplotlib.axis_1">
    <g id="xtick_1">
     <g id="line2d_1">
      <defs>
       <path id="m8707fb96a7" d="M 0 0 
L 0 3.5 
" style="stroke: #000000; stroke-width: 0.8"/>
      </defs>
      <g>
       <use xlink:href="#m8707fb96a7" x="57.6" y="307.584" style="stroke: #000000; stroke-width: 0.8"/>
      </g>
     </g>
     <g id="text_1">
      <!-- 0 -->
      <g transform="translate(54.41875 322.182437)scale(0.1 -0.1)">
       <defs>
        <path id="DejaVuSans-30" d="M 2034 4250 
Q 1547 4250 1301 3770 
Q 1056 3291 1056 2328 
Q 1056 1369 1301 889 
Q 1547 409 2034 409 
Q 2525 409 2770 889 
Q 3016 1369 3016 2328 
Q 3016 3291 2770 3770 
Q 2525 4250 2034 4250 
z
M 2034 4750 
Q 2819 4750 3233 4129 
Q 3647 3509 3647 2328 
Q 3647 1150 3233 529 
Q 2819 -91 2034 -91 
Q 1250 -91 836 529 
Q 422 1150 422 2328 
Q 422 3509 836 4129 
Q 1250 4750 2034 4750 
z
" transform="scale(0.015625)"/>
       </defs>
       <use xlink:href="#DejaVuSans-30"/>
      </g>
     </g>
    </g>
    <g id="xtick_2">
     <g id="line2d_2">
      <g>
       <use xlink:href="#m8707fb96a7" x="119.172414" y="307.584" style="stroke: #000000; stroke-width: 0.8"/>
      </g>
     </g>
     <g id="text_2">
      <!-- 5 -->
      <g transform="translate(115.991164 322.182437)scale(0.1 -0.1)">
       <defs>
        <path id="DejaVuSans-35" d="M 691 4666 
L 3169 4666 
L 3169 4134 
L 1269 4134 
L 1269 2991 
Q 1406 3038 1543 3061 
Q 1681 3084 1819 3084 
Q 2600 3084 3056 2656 
Q 3513 2228 3513 1497 
Q 3513 744 3044 326 
Q 2575 -91 1722 -91 
Q 1428 -91 1123 -41 
Q 819 9 494 109 
L 494 744 
Q 775 591 1075 516 
Q 1375 441 1709 441 
Q 2250 441 2565 725 
Q 2881 1009 2881 1497 
Q 2881 1984 2565 2268 
Q 2250 2553 1709 2553 
Q 1456 2553 1204 2497 
Q 953 2441 691 2322 
L 691 4666 
z
" transform="scale(0.015625)"/>
       </defs>
       <use xlink:href="#DejaVuSans-35"/>
      </g>
     </g>
    </g>
    <g id="xtick_3">
     <g id="line2d_3">
      <g>
       <use xlink:href="#m8707fb96a7" x="180.744828" y="307.584" style="stroke: #000000; stroke-width: 0.8"/>
      </g>
     </g>
     <g id="text_3">
      <!-- 10 -->
      <g transform="translate(174.382328 322.182437)scale(0.1 -0.1)">
       <defs>
        <path id="DejaVuSans-31" d="M 794 531 
L 1825 531 
L 1825 4091 
L 703 3866 
L 703 4441 
L 1819 4666 
L 2450 4666 
L 2450 531 
L 3481 531 
L 3481 0 
L 794 0 
L 794 531 
z
" transform="scale(0.015625)"/>
       </defs>
       <use xlink:href="#DejaVuSans-31"/>
       <use xlink:href="#DejaVuSans-30" x="63.623047"/>
      </g>
     </g>
    </g>
    <g id="xtick_4">
     <g id="line2d_4">
      <g>
       <use xlink:href="#m8707fb96a7" x="242.317241" y="307.584" style="stroke: #000000; stroke-width: 0.8"/>
      </g>
     </g>
     <g id="text_4">
      <!-- 15 -->
      <g transform="translate(235.954741 322.182437)scale(0.1 -0.1)">
       <use xlink:href="#DejaVuSans-31"/>
       <use xlink:href="#DejaVuSans-35" x="63.623047"/>
      </g>
     </g>
    </g>
    <g id="xtick_5">
     <g id="line2d_5">
      <g>
       <use xlink:href="#m8707fb96a7" x="303.889655" y="307.584" style="stroke: #000000; stroke-width: 0.8"/>
      </g>
     </g>
     <g id="text_5">
      <!-- 20 -->
      <g transform="translate(297.527155 322.182437)scale(0.1 -0.1)">
       <defs>
        <path id="DejaVuSans-32" d="M 1228 531 
L 3431 531 
L 3431 0 
L 469 0 
L 469 531 
Q 828 903 1448 1529 
Q 2069 2156 2228 2338 
Q 2531 2678 2651 2914 
Q 2772 3150 2772 3378 
Q 2772 3750 2511 3984 
Q 2250 4219 1831 4219 
Q 1534 4219 1204 4116 
Q 875 4013 500 3803 
L 500 4441 
Q 881 4594 1212 4672 
Q 1544 4750 1819 4750 
Q 2544 4750 2975 4387 
Q 3406 4025 3406 3419 
Q 3406 3131 3298 2873 
Q 3191 2616 2906 2266 
Q 2828 2175 2409 1742 
Q 1991 1309 1228 531 
z
" transform="scale(0.015625)"/>
       </defs>
       <use xlink:href="#DejaVuSans-32"/>
       <use xlink:href="#DejaVuSans-30" x="63.623047"/>
      </g>
     </g>
    </g>
    <g id="xtick_6">
     <g id="line2d_6">
      <g>
       <use xlink:href="#m8707fb96a7" x="365.462069" y="307.584" style="stroke: #000000; stroke-width: 0.8"/>
      </g>
     </g>
     <g id="text_6">
      <!-- 25 -->
      <g transform="translate(359.099569 322.182437)scale(0.1 -0.1)">
       <use xlink:href="#DejaVuSans-32"/>
       <use xlink:href="#DejaVuSans-35" x="63.623047"/>
      </g>
     </g>
    </g>
    <g id="text_7">
     <!-- time (d) -->
     <g transform="translate(216.199062 335.860562)scale(0.1 -0.1)">
      <defs>
       <path id="DejaVuSans-74" d="M 1172 4494 
L 1172 3500 
L 2356 3500 
L 2356 3053 
L 1172 3053 
L 1172 1153 
Q 1172 725 1289 603 
Q 1406 481 1766 481 
L 2356 481 
L 2356 0 
L 1766 0 
Q 1100 0 847 248 
Q 594 497 594 1153 
L 594 3053 
L 172 3053 
L 172 3500 
L 594 3500 
L 594 4494 
L 1172 4494 
z
" transform="scale(0.015625)"/>
       <path id="DejaVuSans-69" d="M 603 3500 
L 1178 3500 
L 1178 0 
L 603 0 
L 603 3500 
z
M 603 4863 
L 1178 4863 
L 1178 4134 
L 603 4134 
L 603 4863 
z
" transform="scale(0.015625)"/>
       <path id="DejaVuSans-6d" d="M 3328 2828 
Q 3544 3216 3844 3400 
Q 4144 3584 4550 3584 
Q 5097 3584 5394 3201 
Q 5691 2819 5691 2113 
L 5691 0 
L 5113 0 
L 5113 2094 
Q 5113 2597 4934 2840 
Q 4756 3084 4391 3084 
Q 3944 3084 3684 2787 
Q 3425 2491 3425 1978 
L 3425 0 
L 2847 0 
L 2847 2094 
Q 2847 2600 2669 2842 
Q 2491 3084 2119 3084 
Q 1678 3084 1418 2786 
Q 1159 2488 1159 1978 
L 1159 0 
L 581 0 
L 581 3500 
L 1159 3500 
L 1159 2956 
Q 1356 3278 1631 3431 
Q 1906 3584 2284 3584 
Q 2666 3584 2933 3390 
Q 3200 3197 3328 2828 
z
" transform="scale(0.015625)"/>
       <path id="DejaVuSans-65" d="M 3597 1894 
L 3597 1613 
L 953 1613 
Q 991 1019 1311 708 
Q 1631 397 2203 397 
Q 2534 397 2845 478 
Q 3156 559 3463 722 
L 3463 178 
Q 3153 47 2828 -22 
Q 2503 -91 2169 -91 
Q 1331 -91 842 396 
Q 353 884 353 1716 
Q 353 2575 817 3079 
Q 1281 3584 2069 3584 
Q 2775 3584 3186 3129 
Q 3597 2675 3597 1894 
z
M 3022 2063 
Q 3016 2534 2758 2815 
Q 2500 3097 2075 3097 
Q 1594 3097 1305 2825 
Q 1016 2553 972 2059 
L 3022 2063 
z
" transform="scale(0.015625)"/>
       <path id="DejaVuSans-20" transform="scale(0.015625)"/>
       <path id="DejaVuSans-28" d="M 1984 4856 
Q 1566 4138 1362 3434 
Q 1159 2731 1159 2009 
Q 1159 1288 1364 580 
Q 1569 -128 1984 -844 
L 1484 -844 
Q 1016 -109 783 600 
Q 550 1309 550 2009 
Q 550 2706 781 3412 
Q 1013 4119 1484 4856 
L 1984 4856 
z
" transform="scale(0.015625)"/>
       <path id="DejaVuSans-64" d="M 2906 2969 
L 2906 4863 
L 3481 4863 
L 3481 0 
L 2906 0 
L 2906 525 
Q 2725 213 2448 61 
Q 2172 -91 1784 -91 
Q 1150 -91 751 415 
Q 353 922 353 1747 
Q 353 2572 751 3078 
Q 1150 3584 1784 3584 
Q 2172 3584 2448 3432 
Q 2725 3281 2906 2969 
z
M 947 1747 
Q 947 1113 1208 752 
Q 1469 391 1925 391 
Q 2381 391 2643 752 
Q 2906 1113 2906 1747 
Q 2906 2381 2643 2742 
Q 2381 3103 1925 3103 
Q 1469 3103 1208 2742 
Q 947 2381 947 1747 
z
" transform="scale(0.015625)"/>
       <path id="DejaVuSans-29" d="M 513 4856 
L 1013 4856 
Q 1481 4119 1714 3412 
Q 1947 2706 1947 2009 
Q 1947 1309 1714 600 
Q 1481 -109 1013 -844 
L 513 -844 
Q 928 -128 1133 580 
Q 1338 1288 1338 2009 
Q 1338 2731 1133 3434 
Q 928 4138 513 4856 
z
" transform="scale(0.015625)"/>
      </defs>
      <use xlink:href="#DejaVuSans-74"/>
      <use xlink:href="#DejaVuSans-69" x="39.208984"/>
      <use xlink:href="#DejaVuSans-6d" x="66.992188"/>
      <use xlink:href="#DejaVuSans-65" x="164.404297"/>
      <use xlink:href="#DejaVuSans-20" x="225.927734"/>
      <use xlink:href="#DejaVuSans-28" x="257.714844"/>
      <use xlink:href="#DejaVuSans-64" x="296.728516"/>
      <use xlink:href="#DejaVuSans-29" x="360.205078"/>
     </g>
    </g>
   </g>
   <g id="matplotlib.axis_2">
    <g id="ytick_1">
     <g id="line2d_7">
      <defs>
       <path id="m4fdb4a2a74" d="M 0 0 
L -3.5 0 
" style="stroke: #000000; stroke-width: 0.8"/>
      </defs>
      <g>
       <use xlink:href="#m4fdb4a2a74" x="57.6" y="295.488" style="stroke: #000000; stroke-width: 0.8"/>
      </g>
     </g>
     <g id="text_8">
      <!-- 0 -->
      <g transform="translate(44.2375 299.287219)scale(0.1 -0.1)">
       <use xlink:href="#DejaVuSans-30"/>
      </g>
     </g>
    </g>
    <g id="ytick_2">
     <g id="line2d_8">
      <g>
       <use xlink:href="#m4fdb4a2a74" x="57.6" y="244.900084" style="stroke: #000000; stroke-width: 0.8"/>
      </g>
     </g>
     <g id="text_9">
      <!-- 10 -->
      <g transform="translate(37.875 248.699302)scale(0.1 -0.1)">
       <use xlink:href="#DejaVuSans-31"/>
       <use xlink:href="#DejaVuSans-30" x="63.623047"/>
      </g>
     </g>
    </g>
    <g id="ytick_3">
     <g id="line2d_9">
      <g>
       <use xlink:href="#m4fdb4a2a74" x="57.6" y="194.312167" style="stroke: #000000; stroke-width: 0.8"/>
      </g>
     </g>
     <g id="text_10">
      <!-- 20 -->
      <g transform="translate(37.875 198.111386)scale(0.1 -0.1)">
       <use xlink:href="#DejaVuSans-32"/>
       <use xlink:href="#DejaVuSans-30" x="63.623047"/>
      </g>
     </g>
    </g>
    <g id="ytick_4">
     <g id="line2d_10">
      <g>
       <use xlink:href="#m4fdb4a2a74" x="57.6" y="143.724251" style="stroke: #000000; stroke-width: 0.8"/>
      </g>
     </g>
     <g id="text_11">
      <!-- 30 -->
      <g transform="translate(37.875 147.523469)scale(0.1 -0.1)">
       <defs>
        <path id="DejaVuSans-33" d="M 2597 2516 
Q 3050 2419 3304 2112 
Q 3559 1806 3559 1356 
Q 3559 666 3084 287 
Q 2609 -91 1734 -91 
Q 1441 -91 1130 -33 
Q 819 25 488 141 
L 488 750 
Q 750 597 1062 519 
Q 1375 441 1716 441 
Q 2309 441 2620 675 
Q 2931 909 2931 1356 
Q 2931 1769 2642 2001 
Q 2353 2234 1838 2234 
L 1294 2234 
L 1294 2753 
L 1863 2753 
Q 2328 2753 2575 2939 
Q 2822 3125 2822 3475 
Q 2822 3834 2567 4026 
Q 2313 4219 1838 4219 
Q 1578 4219 1281 4162 
Q 984 4106 628 3988 
L 628 4550 
Q 988 4650 1302 4700 
Q 1616 4750 1894 4750 
Q 2613 4750 3031 4423 
Q 3450 4097 3450 3541 
Q 3450 3153 3228 2886 
Q 3006 2619 2597 2516 
z
" transform="scale(0.015625)"/>
       </defs>
       <use xlink:href="#DejaVuSans-33"/>
       <use xlink:href="#DejaVuSans-30" x="63.623047"/>
      </g>
     </g>
    </g>
    <g id="ytick_5">
     <g id="line2d_11">
      <g>
       <use xlink:href="#m4fdb4a2a74" x="57.6" y="93.136334" style="stroke: #000000; stroke-width: 0.8"/>
      </g>
     </g>
     <g id="text_12">
      <!-- 40 -->
      <g transform="translate(37.875 96.935553)scale(0.1 -0.1)">
       <defs>
        <path id="DejaVuSans-34" d="M 2419 4116 
L 825 1625 
L 2419 1625 
L 2419 4116 
z
M 2253 4666 
L 3047 4666 
L 3047 1625 
L 3713 1625 
L 3713 1100 
L 3047 1100 
L 3047 0 
L 2419 0 
L 2419 1100 
L 313 1100 
L 313 1709 
L 2253 4666 
z
" transform="scale(0.015625)"/>
       </defs>
       <use xlink:href="#DejaVuSans-34"/>
       <use xlink:href="#DejaVuSans-30" x="63.623047"/>
      </g>
     </g>
    </g>
    <g id="ytick_6">
     <g id="line2d_12">
      <g>
       <use xlink:href="#m4fdb4a2a74" x="57.6" y="42.548418" style="stroke: #000000; stroke-width: 0.8"/>
      </g>
     </g>
     <g id="text_13">
      <!-- 50 -->
      <g transform="translate(37.875 46.347636)scale(0.1 -0.1)">
       <use xlink:href="#DejaVuSans-35"/>
       <use xlink:href="#DejaVuSans-30" x="63.623047"/>
      </g>
     </g>
    </g>
    <g id="text_14">
     <!--  Krshoot (cm$^2$ d$^{-1}$ ) -->
     <g transform="translate(31.795312 222.528)rotate(-90)scale(0.1 -0.1)">
      <defs>
       <path id="DejaVuSans-4b" d="M 628 4666 
L 1259 4666 
L 1259 2694 
L 3353 4666 
L 4166 4666 
L 1850 2491 
L 4331 0 
L 3500 0 
L 1259 2247 
L 1259 0 
L 628 0 
L 628 4666 
z
" transform="scale(0.015625)"/>
       <path id="DejaVuSans-72" d="M 2631 2963 
Q 2534 3019 2420 3045 
Q 2306 3072 2169 3072 
Q 1681 3072 1420 2755 
Q 1159 2438 1159 1844 
L 1159 0 
L 581 0 
L 581 3500 
L 1159 3500 
L 1159 2956 
Q 1341 3275 1631 3429 
Q 1922 3584 2338 3584 
Q 2397 3584 2469 3576 
Q 2541 3569 2628 3553 
L 2631 2963 
z
" transform="scale(0.015625)"/>
       <path id="DejaVuSans-73" d="M 2834 3397 
L 2834 2853 
Q 2591 2978 2328 3040 
Q 2066 3103 1784 3103 
Q 1356 3103 1142 2972 
Q 928 2841 928 2578 
Q 928 2378 1081 2264 
Q 1234 2150 1697 2047 
L 1894 2003 
Q 2506 1872 2764 1633 
Q 3022 1394 3022 966 
Q 3022 478 2636 193 
Q 2250 -91 1575 -91 
Q 1294 -91 989 -36 
Q 684 19 347 128 
L 347 722 
Q 666 556 975 473 
Q 1284 391 1588 391 
Q 1994 391 2212 530 
Q 2431 669 2431 922 
Q 2431 1156 2273 1281 
Q 2116 1406 1581 1522 
L 1381 1569 
Q 847 1681 609 1914 
Q 372 2147 372 2553 
Q 372 3047 722 3315 
Q 1072 3584 1716 3584 
Q 2034 3584 2315 3537 
Q 2597 3491 2834 3397 
z
" transform="scale(0.015625)"/>
       <path id="DejaVuSans-68" d="M 3513 2113 
L 3513 0 
L 2938 0 
L 2938 2094 
Q 2938 2591 2744 2837 
Q 2550 3084 2163 3084 
Q 1697 3084 1428 2787 
Q 1159 2491 1159 1978 
L 1159 0 
L 581 0 
L 581 4863 
L 1159 4863 
L 1159 2956 
Q 1366 3272 1645 3428 
Q 1925 3584 2291 3584 
Q 2894 3584 3203 3211 
Q 3513 2838 3513 2113 
z
" transform="scale(0.015625)"/>
       <path id="DejaVuSans-6f" d="M 1959 3097 
Q 1497 3097 1228 2736 
Q 959 2375 959 1747 
Q 959 1119 1226 758 
Q 1494 397 1959 397 
Q 2419 397 2687 759 
Q 2956 1122 2956 1747 
Q 2956 2369 2687 2733 
Q 2419 3097 1959 3097 
z
M 1959 3584 
Q 2709 3584 3137 3096 
Q 3566 2609 3566 1747 
Q 3566 888 3137 398 
Q 2709 -91 1959 -91 
Q 1206 -91 779 398 
Q 353 888 353 1747 
Q 353 2609 779 3096 
Q 1206 3584 1959 3584 
z
" transform="scale(0.015625)"/>
       <path id="DejaVuSans-63" d="M 3122 3366 
L 3122 2828 
Q 2878 2963 2633 3030 
Q 2388 3097 2138 3097 
Q 1578 3097 1268 2742 
Q 959 2388 959 1747 
Q 959 1106 1268 751 
Q 1578 397 2138 397 
Q 2388 397 2633 464 
Q 2878 531 3122 666 
L 3122 134 
Q 2881 22 2623 -34 
Q 2366 -91 2075 -91 
Q 1284 -91 818 406 
Q 353 903 353 1747 
Q 353 2603 823 3093 
Q 1294 3584 2113 3584 
Q 2378 3584 2631 3529 
Q 2884 3475 3122 3366 
z
" transform="scale(0.015625)"/>
       <path id="DejaVuSans-2212" d="M 678 2272 
L 4684 2272 
L 4684 1741 
L 678 1741 
L 678 2272 
z
" transform="scale(0.015625)"/>
      </defs>
      <use xlink:href="#DejaVuSans-20" transform="translate(0 0.765625)"/>
      <use xlink:href="#DejaVuSans-4b" transform="translate(31.787109 0.765625)"/>
      <use xlink:href="#DejaVuSans-72" transform="translate(97.363281 0.765625)"/>
      <use xlink:href="#DejaVuSans-73" transform="translate(138.476562 0.765625)"/>
      <use xlink:href="#DejaVuSans-68" transform="translate(190.576172 0.765625)"/>
      <use xlink:href="#DejaVuSans-6f" transform="translate(253.955078 0.765625)"/>
      <use xlink:href="#DejaVuSans-6f" transform="translate(315.136719 0.765625)"/>
      <use xlink:href="#DejaVuSans-74" transform="translate(376.318359 0.765625)"/>
      <use xlink:href="#DejaVuSans-20" transform="translate(415.527344 0.765625)"/>
      <use xlink:href="#DejaVuSans-28" transform="translate(447.314453 0.765625)"/>
      <use xlink:href="#DejaVuSans-63" transform="translate(486.328125 0.765625)"/>
      <use xlink:href="#DejaVuSans-6d" transform="translate(541.308594 0.765625)"/>
      <use xlink:href="#DejaVuSans-32" transform="translate(639.677734 39.046875)scale(0.7)"/>
      <use xlink:href="#DejaVuSans-20" transform="translate(686.948242 0.765625)"/>
      <use xlink:href="#DejaVuSans-64" transform="translate(718.735352 0.765625)"/>
      <use xlink:href="#DejaVuSans-2212" transform="translate(783.168945 39.046875)scale(0.7)"/>
      <use xlink:href="#DejaVuSans-31" transform="translate(841.821289 39.046875)scale(0.7)"/>
      <use xlink:href="#DejaVuSans-20" transform="translate(889.091797 0.765625)"/>
      <use xlink:href="#DejaVuSans-29" transform="translate(920.878906 0.765625)"/>
     </g>
    </g>
   </g>
   <g id="line2d_13">
    <path d="M 69.914483 295.488 
L 82.228966 295.487674 
L 94.543448 293.383041 
L 106.857931 287.059883 
L 119.172414 281.413388 
L 131.486897 275.263285 
L 143.801379 265.265035 
L 156.115862 255.485724 
L 168.430345 246.604114 
L 180.744828 236.059163 
L 193.05931 226.5147 
L 205.373793 218.003832 
L 217.688276 207.159989 
L 230.002759 197.076677 
L 242.317241 187.471555 
L 254.631724 177.334402 
L 266.946207 167.901506 
L 279.26069 159.371402 
L 291.575172 150.799051 
L 303.889655 142.938759 
L 316.204138 136.036169 
L 328.518621 129.440489 
L 340.833103 123.49996 
L 353.147586 118.102133 
L 365.462069 112.759946 
L 377.776552 107.929515 
L 390.091034 103.362134 
L 402.405517 99.03868 
" clip-path="url(#pb37fa22122)" style="fill: none; stroke: #1f77b4; stroke-width: 1.5; stroke-linecap: square"/>
   </g>
   <g id="line2d_14">
    <path d="M 69.914483 295.488 
L 82.228966 295.487562 
L 94.543448 292.186678 
L 106.857931 286.990594 
L 119.172414 281.468243 
L 131.486897 276.279874 
L 143.801379 267.78394 
L 156.115862 258.718117 
L 168.430345 250.290074 
L 180.744828 239.97713 
L 193.05931 230.93564 
L 205.373793 222.20584 
L 217.688276 211.419219 
L 230.002759 201.448265 
L 242.317241 191.456864 
L 254.631724 180.84004 
L 266.946207 170.615223 
L 279.26069 161.034621 
L 291.575172 151.247125 
L 303.889655 142.299907 
L 316.204138 134.099131 
L 328.518621 126.202098 
L 340.833103 119.128832 
L 353.147586 112.755545 
L 365.462069 106.669453 
L 377.776552 101.403109 
L 390.091034 96.641291 
L 402.405517 92.133854 
" clip-path="url(#pb37fa22122)" style="fill: none; stroke: #ff7f0e; stroke-width: 1.5; stroke-linecap: square"/>
   </g>
   <g id="line2d_15">
    <path d="M 69.914483 295.488 
L 82.228966 295.487559 
L 94.543448 292.107291 
L 106.857931 286.732652 
L 119.172414 282.385431 
L 131.486897 277.814068 
L 143.801379 270.02812 
L 156.115862 262.479563 
L 168.430345 255.230734 
L 180.744828 246.29057 
L 193.05931 238.857912 
L 205.373793 231.562333 
L 217.688276 222.448962 
L 230.002759 214.625453 
L 242.317241 207.095221 
L 254.631724 199.020525 
L 266.946207 191.902136 
L 279.26069 185.110812 
L 291.575172 178.074091 
L 303.889655 171.779344 
L 316.204138 166.12082 
L 328.518621 160.402394 
L 340.833103 155.466041 
L 353.147586 151.012317 
L 365.462069 146.572328 
L 377.776552 142.726596 
L 390.091034 139.306933 
L 402.405517 136.094961 
" clip-path="url(#pb37fa22122)" style="fill: none; stroke: #2ca02c; stroke-width: 1.5; stroke-linecap: square"/>
   </g>
   <g id="line2d_16">
    <path d="M 69.914483 295.487924 
L 82.228966 295.453044 
L 94.543448 289.68493 
L 106.857931 283.045988 
L 119.172414 277.925077 
L 131.486897 270.975809 
L 143.801379 260.349782 
L 156.115862 250.546683 
L 168.430345 239.833239 
L 180.744828 227.597616 
L 193.05931 218.037455 
L 205.373793 207.455844 
L 217.688276 194.981156 
L 230.002759 184.715282 
L 242.317241 174.058229 
L 254.631724 163.0989 
L 266.946207 153.846044 
L 279.26069 144.373725 
L 291.575172 134.785837 
L 303.889655 126.596554 
L 316.204138 118.510194 
L 328.518621 110.6771 
L 340.833103 104.133645 
L 353.147586 97.859802 
L 365.462069 91.727766 
L 377.776552 86.520535 
L 390.091034 81.542926 
L 402.405517 76.790336 
" clip-path="url(#pb37fa22122)" style="fill: none; stroke: #d62728; stroke-width: 1.5; stroke-linecap: square"/>
   </g>
   <g id="patch_3">
    <path d="M 57.6 307.584 
L 57.6 41.472 
" style="fill: none; stroke: #000000; stroke-width: 0.8; stroke-linejoin: miter; stroke-linecap: square"/>
   </g>
   <g id="patch_4">
    <path d="M 414.72 307.584 
L 414.72 41.472 
" style="fill: none; stroke: #000000; stroke-width: 0.8; stroke-linejoin: miter; stroke-linecap: square"/>
   </g>
   <g id="patch_5">
    <path d="M 57.6 307.584 
L 414.72 307.584 
" style="fill: none; stroke: #000000; stroke-width: 0.8; stroke-linejoin: miter; stroke-linecap: square"/>
   </g>
   <g id="patch_6">
    <path d="M 57.6 41.472 
L 414.72 41.472 
" style="fill: none; stroke: #000000; stroke-width: 0.8; stroke-linejoin: miter; stroke-linecap: square"/>
   </g>
   <g id="legend_1">
    <g id="patch_7">
     <path d="M 64.6 108.1845 
L 108.992188 108.1845 
Q 110.992188 108.1845 110.992188 106.1845 
L 110.992188 48.472 
Q 110.992188 46.472 108.992188 46.472 
L 64.6 46.472 
Q 62.6 46.472 62.6 48.472 
L 62.6 106.1845 
Q 62.6 108.1845 64.6 108.1845 
z
" style="fill: #ffffff; opacity: 0.8; stroke: #cccccc; stroke-linejoin: miter"/>
    </g>
    <g id="line2d_17">
     <path d="M 66.6 54.570438 
L 76.6 54.570438 
L 86.6 54.570438 
" style="fill: none; stroke: #1f77b4; stroke-width: 1.5; stroke-linecap: square"/>
    </g>
    <g id="text_15">
     <!-- P0 -->
     <g transform="translate(94.6 58.070438)scale(0.1 -0.1)">
      <defs>
       <path id="DejaVuSans-50" d="M 1259 4147 
L 1259 2394 
L 2053 2394 
Q 2494 2394 2734 2622 
Q 2975 2850 2975 3272 
Q 2975 3691 2734 3919 
Q 2494 4147 2053 4147 
L 1259 4147 
z
M 628 4666 
L 2053 4666 
Q 2838 4666 3239 4311 
Q 3641 3956 3641 3272 
Q 3641 2581 3239 2228 
Q 2838 1875 2053 1875 
L 1259 1875 
L 1259 0 
L 628 0 
L 628 4666 
z
" transform="scale(0.015625)"/>
      </defs>
      <use xlink:href="#DejaVuSans-50"/>
      <use xlink:href="#DejaVuSans-30" x="60.302734"/>
     </g>
    </g>
    <g id="line2d_18">
     <path d="M 66.6 69.248563 
L 76.6 69.248563 
L 86.6 69.248563 
" style="fill: none; stroke: #ff7f0e; stroke-width: 1.5; stroke-linecap: square"/>
    </g>
    <g id="text_16">
     <!-- P1 -->
     <g transform="translate(94.6 72.748563)scale(0.1 -0.1)">
      <use xlink:href="#DejaVuSans-50"/>
      <use xlink:href="#DejaVuSans-31" x="60.302734"/>
     </g>
    </g>
    <g id="line2d_19">
     <path d="M 66.6 83.926688 
L 76.6 83.926688 
L 86.6 83.926688 
" style="fill: none; stroke: #2ca02c; stroke-width: 1.5; stroke-linecap: square"/>
    </g>
    <g id="text_17">
     <!-- P2 -->
     <g transform="translate(94.6 87.426688)scale(0.1 -0.1)">
      <use xlink:href="#DejaVuSans-50"/>
      <use xlink:href="#DejaVuSans-32" x="60.302734"/>
     </g>
    </g>
    <g id="line2d_20">
     <path d="M 66.6 98.604813 
L 76.6 98.604813 
L 86.6 98.604813 
" style="fill: none; stroke: #d62728; stroke-width: 1.5; stroke-linecap: square"/>
    </g>
    <g id="text_18">
     <!-- P3 -->
     <g transform="translate(94.6 102.104813)scale(0.1 -0.1)">
      <use xlink:href="#DejaVuSans-50"/>
      <use xlink:href="#DejaVuSans-33" x="60.302734"/>
     </g>
    </g>
   </g>
  </g>
 </g>
 <defs>
  <clipPath id="pb37fa22122">
   <rect x="57.6" y="41.472" width="357.12" height="266.112"/>
  </clipPath>
 </defs>
</svg>
